<svg id="Capa_1" enable-background="new 0 0 504.479 504.479" height="512" viewBox="0 0 504.479 504.479" width="512" xmlns="http://www.w3.org/2000/svg"><g><g><path d="m496.897 504.479h-324.475c-4.143 0-7.5-3.358-7.5-7.5s3.357-7.5 7.5-7.5h324.476c4.143 0 7.5 3.358 7.5 7.5s-3.358 7.5-7.501 7.5z" fill="#89828d"/></g><path d="m145.408 481.302-136.7-136.7c-11.502-11.502-11.502-30.15 0-41.652l93.082-93.082 178.352 178.352-93.082 93.082c-11.502 11.502-30.15 11.502-41.652 0z" fill="#f2fdff"/><path d="m266 374.079-93.082 93.082c-11.502 11.502-30.15 11.502-41.652 0l21.213 21.213c11.502 11.502 30.15 11.502 41.652 0l93.082-93.082z" fill="#d3ecf5"/><path d="m266 402.363-178.352-178.352 215.384-215.384c11.502-11.502 30.15-11.502 41.652 0l136.7 136.7c11.502 11.502 11.502 30.15 0 41.652z" fill="#9dc6fb"/><path d="m488.455 152.397-21.213-21.213c11.502 11.502 11.502 30.15 0 41.652l-215.384 215.385 21.213 21.213 215.384-215.384c11.502-11.502 11.502-30.151 0-41.653z" fill="#80b4fb"/><ellipse cx="298.465" cy="198.617" fill="#f9d065" rx="102.863" ry="56.456" transform="matrix(.707 -.707 .707 .707 -53.025 269.22)"/></g></svg>