<svg id="Capa_1" enable-background="new 0 0 512 512" height="512" viewBox="0 0 512 512" width="512" xmlns="http://www.w3.org/2000/svg"><g><g><path d="m105.95 337.595h77.369v166.794h-77.369z" fill="#dbedff"/></g><g><path d="m104.935 337.595h28.233v166.794h-28.233z" fill="#b5dcff"/></g><g><path d="m331.49 337.595v166.794h75.575c0-18.445 0-149.439 0-166.794z" fill="#dbedff"/></g><g><path d="m331.49 337.595v166.794h29.305c0-18.445 0-149.439 0-166.794z" fill="#b5dcff"/></g><g><path d="m416.663 345.206h-82.593c-4.204 0-7.612-3.408-7.612-7.612s3.408-7.611 7.612-7.611h82.593c4.204 0 7.612 3.408 7.612 7.611s-3.408 7.612-7.612 7.612z" fill="#ffaa5b"/></g><g><path d="m177.93 345.206h-82.593c-4.204 0-7.611-3.408-7.611-7.612s3.408-7.611 7.611-7.611h82.593c4.204 0 7.611 3.408 7.611 7.611s-3.408 7.612-7.611 7.612z" fill="#ffaa5b"/></g><path d="m71.879 121.809c1.715 2.326 1.715 5.497 0 7.823l-1.979 2.684 3.559 3.604h69.265v-49.222l-3.95-6.482h-84.508c-5.407 0-8.514 6.151-5.306 10.503z" fill="#ff76aa"/><path d="m438.051 135.919 4.049-3.604-1.979-2.684c-1.715-2.326-1.715-5.497 0-7.823l22.919-31.089c3.209-4.352.101-10.503-5.306-10.503h-84.508l-5.962 3.749v51.955h70.787z" fill="#ff76aa"/><g><path d="m69.9 132.316-20.94 28.405c-3.209 4.352-.101 10.503 5.306 10.503h84.508l3.95-4.352v-38.909l-3.95 4.352h-68.874z" fill="#ff5595"/></g><g><path d="m442.1 132.316h-68.874l-5.962-4.605v38.909l5.962 4.605h84.508c5.407 0 8.514-6.151 5.306-10.503z" fill="#ff5595"/></g><g><path d="m224.551 284.96h109.52v219.429h-109.52z" fill="#dbedff"/></g><g><path d="m177.93 284.96h47.9v219.429h-47.9z" fill="#b5dcff"/></g><path d="m279.568 435.495h-16.646c-4.036.475-7.169 3.903-7.169 8.066v60.827h31.696v-61.012c0-4.352-3.528-7.881-7.881-7.881z" fill="#8479c2"/><path d="m263.882 435.495h-31.449c-4.353 0-7.881 3.529-7.881 7.881v61.012h31.448v-61.012c0-4.352 3.529-7.881 7.882-7.881z" fill="#6e60b8"/><path d="m275.001 1.428c-54.54 15.028-94.603 64.975-94.603 124.292s40.063 109.264 94.603 124.292c60.417-9.159 106.72-61.318 106.72-124.292s-46.303-115.132-106.72-124.292z" fill="#ffe02f"/><path d="m182.932 125.72c0-60.403 42.601-110.848 99.394-122.951-8.49-1.809-17.296-2.769-26.326-2.769-69.433 0-125.72 56.287-125.72 125.72s56.287 125.72 125.72 125.72c9.03 0 17.835-.96 26.326-2.77-56.793-12.101-99.394-62.547-99.394-122.95z" fill="#fbc700"/><g><path d="m341.103 292.571h-170.206c-4.204 0-7.611-3.408-7.611-7.611 0-4.204 3.408-7.612 7.611-7.612h170.206c4.204 0 7.612 3.408 7.612 7.612s-3.408 7.611-7.612 7.611z" fill="#ffaa5b"/></g><g><path d="m218.219 333.049h-5.23c-4.204 0-7.611-3.408-7.611-7.611 0-4.204 3.408-7.612 7.611-7.612h5.23c4.204 0 7.611 3.408 7.611 7.612 0 4.203-3.408 7.611-7.611 7.611z" fill="#6e60b8"/></g><g><path d="m258.615 333.049h-5.23c-4.204 0-7.611-3.408-7.611-7.611 0-4.204 3.408-7.612 7.611-7.612h5.23c4.204 0 7.612 3.408 7.612 7.612 0 4.203-3.408 7.611-7.612 7.611z" fill="#6e60b8"/></g><g><path d="m299.011 333.049h-5.23c-4.204 0-7.612-3.408-7.612-7.611 0-4.204 3.408-7.612 7.612-7.612h5.23c4.204 0 7.612 3.408 7.612 7.612 0 4.203-3.408 7.611-7.612 7.611z" fill="#6e60b8"/></g><g><path d="m218.219 368.561h-5.23c-4.204 0-7.611-3.408-7.611-7.611s3.408-7.612 7.611-7.612h5.23c4.204 0 7.611 3.408 7.611 7.612s-3.408 7.611-7.611 7.611z" fill="#6e60b8"/></g><g><path d="m258.615 368.561h-5.23c-4.204 0-7.611-3.408-7.611-7.611s3.408-7.612 7.611-7.612h5.23c4.204 0 7.612 3.408 7.612 7.612s-3.408 7.611-7.612 7.611z" fill="#6e60b8"/></g><g><path d="m299.011 368.561h-5.23c-4.204 0-7.612-3.408-7.612-7.611s3.408-7.612 7.612-7.612h5.23c4.204 0 7.612 3.408 7.612 7.612s-3.408 7.611-7.612 7.611z" fill="#6e60b8"/></g><g><path d="m218.219 404.074h-5.23c-4.204 0-7.611-3.408-7.611-7.611s3.408-7.612 7.611-7.612h5.23c4.204 0 7.611 3.408 7.611 7.612s-3.408 7.611-7.611 7.611z" fill="#6e60b8"/></g><g><path d="m258.615 404.074h-5.23c-4.204 0-7.611-3.408-7.611-7.611s3.408-7.612 7.611-7.612h5.23c4.204 0 7.612 3.408 7.612 7.612s-3.408 7.611-7.612 7.611z" fill="#6e60b8"/></g><g><path d="m299.011 404.074h-5.23c-4.204 0-7.612-3.408-7.612-7.611s3.408-7.612 7.612-7.612h5.23c4.204 0 7.612 3.408 7.612 7.612s-3.408 7.611-7.612 7.611z" fill="#6e60b8"/></g><g><path d="m373.636 393.09h-5.229c-4.204 0-7.612-3.408-7.612-7.611 0-4.204 3.408-7.612 7.612-7.612h5.229c4.204 0 7.611 3.408 7.611 7.612 0 4.203-3.408 7.611-7.611 7.611z" fill="#6e60b8"/></g><g><path d="m373.636 428.603h-5.229c-4.204 0-7.612-3.408-7.612-7.611 0-4.204 3.408-7.612 7.612-7.612h5.229c4.204 0 7.611 3.408 7.611 7.612 0 4.203-3.408 7.611-7.611 7.611z" fill="#6e60b8"/></g><g><path d="m373.636 464.116h-5.229c-4.204 0-7.612-3.408-7.612-7.611s3.408-7.612 7.612-7.612h5.229c4.204 0 7.611 3.408 7.611 7.612s-3.408 7.611-7.611 7.611z" fill="#6e60b8"/></g><g><path d="m143.594 393.09h-5.229c-4.204 0-7.612-3.408-7.612-7.611 0-4.204 3.408-7.612 7.612-7.612h5.229c4.204 0 7.611 3.408 7.611 7.612 0 4.203-3.408 7.611-7.611 7.611z" fill="#6e60b8"/></g><g><path d="m143.594 428.603h-5.229c-4.204 0-7.612-3.408-7.612-7.611 0-4.204 3.408-7.612 7.612-7.612h5.229c4.204 0 7.611 3.408 7.611 7.612 0 4.203-3.408 7.611-7.611 7.611z" fill="#6e60b8"/></g><g><path d="m143.594 464.116h-5.229c-4.204 0-7.612-3.408-7.612-7.611s3.408-7.612 7.612-7.612h5.229c4.204 0 7.611 3.408 7.611 7.612s-3.408 7.611-7.611 7.611z" fill="#6e60b8"/></g><g fill="#9790cc"><path d="m214.753 54.236c-1.156-2.91-3.972-4.805-7.078-4.806-3.178.002-5.951 1.979-7.076 4.806l-21.255 53.712c-1.547 3.909.368 8.332 4.277 9.878 3.91 1.547 8.332-.369 9.878-4.277l3.04-7.681h22.276l3.04 7.681c1.546 3.908 5.968 5.824 9.878 4.277 3.909-1.547 5.824-5.969 4.277-9.878zm-12.191 36.409 5.114-12.923 5.114 12.923z"/><path d="m251.722 118.36h23.646c4.204 0 7.612-3.408 7.612-7.612s-3.408-7.611-7.612-7.611h-16.034v-46.1c0-4.204-3.408-7.611-7.612-7.611s-7.611 3.408-7.611 7.611v53.712c-.001 4.203 3.407 7.611 7.611 7.611z"/><path d="m321.72 103.137h-16.034v-46.1c0-4.204-3.408-7.611-7.612-7.611s-7.611 3.408-7.611 7.611v53.712c0 4.204 3.408 7.612 7.611 7.612h23.646c4.204 0 7.612-3.408 7.612-7.612-.001-4.204-3.409-7.612-7.612-7.612z"/><path d="m218.507 132.316c-4.204 0-7.611 3.408-7.611 7.611v60.068c0 4.204 3.408 7.611 7.611 7.611 4.204 0 7.611-3.408 7.611-7.611v-60.068c0-4.203-3.407-7.611-7.611-7.611z"/><path d="m289.634 132.316c-4.204 0-7.611 3.408-7.611 7.611v33.757l-23.88-37.821c-1.81-2.866-5.299-4.19-8.551-3.248-3.256.942-5.497 3.923-5.497 7.312v60.068c0 4.204 3.408 7.611 7.611 7.611 4.204 0 7.611-3.408 7.611-7.611v-33.757l23.88 37.821c4.066 6.437 14.048 3.555 14.048-4.064v-60.068c0-4.203-3.408-7.611-7.611-7.611z"/></g><g><path d="m416.663 512h-321.326c-4.204 0-7.611-3.408-7.611-7.612s3.408-7.611 7.611-7.611h321.326c4.204 0 7.612 3.408 7.612 7.611s-3.408 7.612-7.612 7.612z" fill="#73d578"/></g></g></svg>