<?xml version="1.0" standalone="no"?>
<!DOCTYPE svg PUBLIC "-//W3C//DTD SVG 20010904//EN"
 "http://www.w3.org/TR/2001/REC-SVG-20010904/DTD/svg10.dtd">
<svg version="1.0" xmlns="http://www.w3.org/2000/svg"
 width="512.000000pt" height="512.000000pt" viewBox="0 0 512.000000 512.000000"
 preserveAspectRatio="xMidYMid meet">
<metadata>
Created by potrace 1.16, written by Peter Selinger 2001-2019
</metadata>
<g transform="translate(0.000000,512.000000) scale(0.100000,-0.100000)"
fill="#000000" stroke="none">
<path d="M534 5102 c-100 -35 -183 -126 -204 -225 -8 -37 -10 -699 -8 -2347
l3 -2295 22 -47 c27 -60 101 -134 161 -161 l47 -22 1652 -3 c1068 -1 1660 1
1677 8 14 5 35 24 47 42 19 30 20 44 15 168 -5 145 -20 231 -60 349 -134 389
-514 682 -918 708 l-88 6 0 36 c0 36 1 37 103 88 161 83 314 211 412 346 l40
55 135 4 c123 3 140 6 191 31 67 32 132 99 162 165 32 71 30 180 -4 252 -50
106 -137 175 -237 187 l-50 6 -5 246 c-4 168 -10 267 -21 312 -54 233 -175
449 -340 607 l-65 63 -3 603 -3 602 -30 59 c-37 72 -114 138 -187 160 -45 13
-196 15 -1222 15 -1092 -1 -1174 -2 -1222 -18z m216 -297 c5 -82 11 -109 32
-151 34 -65 105 -128 174 -154 53 -19 75 -20 804 -20 739 0 750 0 807 21 42
16 73 37 114 78 67 68 87 119 96 245 l6 89 70 -6 c80 -7 111 -28 127 -86 10
-36 15 -981 5 -981 -3 0 -33 23 -67 51 -223 180 -551 212 -809 78 -42 -22
-105 -65 -140 -95 -35 -30 -108 -84 -161 -120 -272 -181 -458 -463 -513 -778
-10 -62 -15 -155 -15 -307 l0 -219 -37 0 c-57 0 -152 -50 -201 -105 -143 -163
-90 -411 108 -504 48 -22 71 -26 188 -29 l133 -4 31 -47 c93 -135 307 -309
465 -378 61 -27 63 -28 63 -65 l0 -38 -59 0 c-120 0 -292 -46 -426 -113 -194
-97 -375 -278 -474 -474 -64 -128 -110 -304 -111 -426 l0 -59 -180 4 -180 3
-32 33 -33 32 0 2280 0 2279 29 30 c31 32 54 39 131 37 l50 -1 5 -100z m1810
33 c0 -82 -23 -123 -79 -138 -62 -16 -1438 -9 -1468 8 -35 20 -53 65 -53 132
l0 60 800 0 800 0 0 -62z m61 -1028 c131 -43 257 -156 312 -280 92 -205 49
-438 -108 -595 -200 -200 -520 -208 -724 -19 -100 92 -152 192 -171 324 -27
192 70 406 233 511 53 34 143 70 207 83 51 10 189 -3 251 -24z m-835 -847 c33
-55 84 -129 110 -160 l27 -33 -213 0 -213 0 6 88 c10 143 -1 132 143 132 l124
0 16 -27z m1613 -48 c6 -42 11 -91 11 -110 l0 -35 -210 0 c-115 0 -210 2 -210
5 0 3 20 30 44 59 24 30 57 77 72 105 l29 51 126 0 127 0 11 -75z m8 -487 c-6
-158 -29 -252 -92 -385 -53 -112 -89 -166 -171 -253 -116 -122 -274 -215 -444
-261 -71 -19 -111 -23 -245 -24 -137 0 -172 3 -244 23 -275 75 -495 256 -616
507 -64 132 -86 224 -92 388 l-6 137 958 0 958 0 -6 -132z m-2102 -230 c4 -23
16 -66 26 -97 11 -30 19 -58 19 -63 0 -4 -25 -8 -56 -8 -48 0 -59 4 -85 29
-23 23 -29 38 -29 71 0 51 12 75 48 94 50 28 69 21 77 -26z m2398 2 c30 -34
35 -75 13 -119 -19 -35 -55 -51 -116 -51 l-49 0 18 53 c10 28 24 76 31 106 12
52 13 53 44 47 17 -3 43 -20 59 -36z m-1200 -917 l157 4 0 -79 c0 -116 -31
-178 -110 -218 -85 -42 -174 -29 -242 37 -47 45 -68 109 -68 203 l0 67 53 -9
c28 -6 123 -8 210 -5z m-439 -288 c55 -126 180 -221 326 -247 196 -34 407 97
473 295 13 37 184 15 335 -43 45 -17 82 -36 82 -41 0 -5 -82 -173 -182 -374
l-183 -365 -466 0 -466 0 -177 363 c-98 199 -178 366 -179 372 -3 14 137 71
218 89 39 8 97 15 130 15 l61 1 28 -65z m-324 -776 c0 -5 -116 -9 -280 -9
l-280 0 0 50 c0 168 95 396 217 522 l46 46 148 -300 c82 -165 149 -304 149
-309z m1851 461 c80 -121 139 -302 139 -426 l0 -44 -285 0 c-185 0 -285 4
-285 10 0 6 68 146 151 311 l150 302 41 -39 c22 -22 62 -73 89 -114z"/>
<path d="M2384 3621 c-61 -15 -124 -53 -168 -102 -137 -152 -95 -396 86 -494
74 -40 187 -47 270 -15 199 75 264 321 132 497 -67 90 -209 140 -320 114z
m143 -246 c32 -32 35 -40 30 -77 -8 -60 -45 -93 -103 -93 -39 0 -50 5 -75 33
-63 70 -17 171 80 172 25 0 42 -9 68 -35z"/>
<path d="M2698 2445 c-43 -24 -58 -64 -58 -150 0 -82 14 -123 52 -149 44 -31
134 -11 158 33 5 11 10 64 10 118 0 96 -1 100 -29 127 -35 34 -94 43 -133 21z"/>
<path d="M2059 2421 c-28 -28 -29 -33 -29 -124 0 -88 2 -98 26 -126 32 -38 80
-49 122 -27 51 27 62 51 62 144 0 120 -28 161 -108 162 -35 0 -49 -6 -73 -29z"/>
<path d="M2264 2041 c-121 -52 -59 -272 94 -337 61 -26 168 -16 228 21 62 39
101 95 116 166 14 69 0 112 -46 140 -64 39 -136 10 -157 -63 -14 -50 -26 -68
-45 -68 -20 0 -44 29 -44 56 0 57 -89 109 -146 85z"/>
<path d="M3856 4831 c-118 -118 -119 -120 -113 -157 4 -21 16 -47 27 -58 l20
-21 151 150 c83 83 159 162 170 178 l20 27 -78 0 -78 0 -119 -119z"/>
<path d="M4020 4464 c-234 -50 -436 -254 -485 -489 -71 -338 136 -670 471
-755 338 -87 687 124 774 466 102 400 -211 797 -625 793 -38 0 -99 -7 -135
-15z m266 -220 c148 -40 271 -184 292 -343 47 -338 -300 -590 -606 -440 -311
152 -311 605 0 758 98 48 200 56 314 25z"/>
<path d="M4108 4094 c-35 -18 -58 -62 -58 -109 0 -33 -2 -35 -35 -35 -67 0
-125 -51 -125 -110 0 -59 60 -110 130 -110 27 0 30 -3 30 -30 0 -88 66 -143
142 -121 46 14 69 46 75 105 5 43 6 44 49 49 59 6 91 29 105 75 22 76 -33 142
-121 142 -27 0 -30 3 -30 30 0 98 -84 157 -162 114z"/>
</g>
</svg>
