<?xml version="1.0" encoding="utf-8"?>
<!-- Generator: Adobe Illustrator 19.0.0, SVG Export Plug-In . SVG Version: 6.00 Build 0)  -->
<svg version="1.1" id="Layer_1" xmlns="http://www.w3.org/2000/svg" xmlns:xlink="http://www.w3.org/1999/xlink" x="0px" y="0px"
	 viewBox="-49 393 512 512" style="enable-background:new -49 393 512 512;" xml:space="preserve">
<style type="text/css">
	.st0{fill:#FFFFFF;}
</style>
<g transform="translate(0.000000,512.000000) scale(0.100000,-0.100000)">
	<path class="st0" d="M44,1172c-100-35-183-126-204-225c-8-37-10-699-8-2347l3-2295l22-47c27-60,101-134,161-161l47-22l1652-3
		c1068-1,1660,1,1677,8c14,5,35,24,47,42c19,30,20,44,15,168c-5,145-20,231-60,349c-134,389-514,682-918,708l-88,6v36
		c0,36,1,37,103,88c161,83,314,211,412,346l40,55l135,4c123,3,140,6,191,31c67,32,132,99,162,165c32,71,30,180-4,252
		c-50,106-137,175-237,187l-50,6l-5,246c-4,168-10,267-21,312c-54,233-175,449-340,607l-65,63l-3,603l-3,602l-30,59
		c-37,72-114,138-187,160c-45,13-196,15-1222,15C174,1189,92,1188,44,1172z M260,875c5-82,11-109,32-151c34-65,105-128,174-154
		c53-19,75-20,804-20c739,0,750,0,807,21c42,16,73,37,114,78c67,68,87,119,96,245l6,89l70-6c80-7,111-28,127-86c10-36,15-981,5-981
		c-3,0-33,23-67,51c-223,180-551,212-809,78c-42-22-105-65-140-95s-108-84-161-120c-272-181-458-463-513-778c-10-62-15-155-15-307
		v-219h-37c-57,0-152-50-201-105c-143-163-90-411,108-504c48-22,71-26,188-29l133-4l31-47c93-135,307-309,465-378c61-27,63-28,63-65
		v-38h-59c-120,0-292-46-426-113c-194-97-375-278-474-474c-64-128-110-304-111-426v-59l-180,4l-180,3l-32,33l-33,32v2280V909l29,30
		c31,32,54,39,131,37l50-1L260,875z M2070,908c0-82-23-123-79-138c-62-16-1438-9-1468,8c-35,20-53,65-53,132v60h800h800V908z
		 M2131-120c131-43,257-156,312-280c92-205,49-438-108-595c-200-200-520-208-724-19c-100,92-152,192-171,324c-27,192,70,406,233,511
		c53,34,143,70,207,83C1931-86,2069-99,2131-120z M1296-967c33-55,84-129,110-160l27-33h-213h-213l6,88c10,143-1,132,143,132h124
		L1296-967z M2909-1015c6-42,11-91,11-110v-35h-210c-115,0-210,2-210,5s20,30,44,59c24,30,57,77,72,105l29,51h126h127L2909-1015z
		 M2917-1502c-6-158-29-252-92-385c-53-112-89-166-171-253c-116-122-274-215-444-261c-71-19-111-23-245-24c-137,0-172,3-244,23
		c-275,75-495,256-616,507c-64,132-86,224-92,388l-6,137h958h958L2917-1502z M815-1732c4-23,16-66,26-97c11-30,19-58,19-63
		c0-4-25-8-56-8c-48,0-59,4-85,29c-23,23-29,38-29,71c0,51,12,75,48,94C788-1678,807-1685,815-1732z M3213-1730c30-34,35-75,13-119
		c-19-35-55-51-116-51h-49l18,53c10,28,24,76,31,106c12,52,13,53,44,47C3171-1697,3197-1714,3213-1730z M2013-2647l157,4v-79
		c0-116-31-178-110-218c-85-42-174-29-242,37c-47,45-68,109-68,203v67l53-9C1831-2648,1926-2650,2013-2647z M1574-2935
		c55-126,180-221,326-247c196-34,407,97,473,295c13,37,184,15,335-43c45-17,82-36,82-41s-82-173-182-374l-183-365h-466h-466
		l-177,363c-98,199-178,366-179,372c-3,14,137,71,218,89c39,8,97,15,130,15l61,1L1574-2935z M1250-3711c0-5-116-9-280-9H690v50
		c0,168,95,396,217,522l46,46l148-300C1183-3567,1250-3706,1250-3711z M3101-3250c80-121,139-302,139-426v-44h-285
		c-185,0-285,4-285,10s68,146,151,311l150,302l41-39C3034-3158,3074-3209,3101-3250z"/>
	<path class="st0" d="M1894-309c-61-15-124-53-168-102c-137-152-95-396,86-494c74-40,187-47,270-15c199,75,264,321,132,497
		C2147-333,2005-283,1894-309z M2037-555c32-32,35-40,30-77c-8-60-45-93-103-93c-39,0-50,5-75,33c-63,70-17,171,80,172
		C1994-520,2011-529,2037-555z"/>
	<path class="st0" d="M2208-1485c-43-24-58-64-58-150c0-82,14-123,52-149c44-31,134-11,158,33c5,11,10,64,10,118c0,96-1,100-29,127
		C2306-1472,2247-1463,2208-1485z"/>
	<path class="st0" d="M1569-1509c-28-28-29-33-29-124c0-88,2-98,26-126c32-38,80-49,122-27c51,27,62,51,62,144c0,120-28,161-108,162
		C1607-1480,1593-1486,1569-1509z"/>
	<path class="st0" d="M1774-1889c-121-52-59-272,94-337c61-26,168-16,228,21c62,39,101,95,116,166c14,69,0,112-46,140
		c-64,39-136,10-157-63c-14-50-26-68-45-68c-20,0-44,29-44,56C1920-1917,1831-1865,1774-1889z"/>
	<path class="st0" d="M3366,901c-118-118-119-120-113-157c4-21,16-47,27-58l20-21l151,150c83,83,159,162,170,178l20,27h-78h-78
		L3366,901z"/>
	<path class="st0" d="M3530,534c-234-50-436-254-485-489c-71-338,136-670,471-755c338-87,687,124,774,466c102,400-211,797-625,793
		C3627,549,3566,542,3530,534z M3796,314c148-40,271-184,292-343c47-338-300-590-606-440c-311,152-311,605,0,758
		C3580,337,3682,345,3796,314z"/>
	<path class="st0" d="M3618,164c-35-18-58-62-58-109c0-33-2-35-35-35c-67,0-125-51-125-110s60-110,130-110c27,0,30-3,30-30
		c0-88,66-143,142-121c46,14,69,46,75,105c5,43,6,44,49,49c59,6,91,29,105,75c22,76-33,142-121,142c-27,0-30,3-30,30
		C3780,148,3696,207,3618,164z"/>
</g>
</svg>
