<svg id="Capa_1" enable-background="new 0 0 512.001 512.001" height="512" viewBox="0 0 512.001 512.001" width="512" xmlns="http://www.w3.org/2000/svg"><g><path d="m449.977 503.212-7.686-44.087c-4.307-24.69-21.836-44.798-45.791-52.49l-72.86-22.905c-2.763-.868-4.783-3.286-5.146-6.161-.435-2.243-4.846-40.688-5.592-43.145 24.044-18.071 41.276-39.947 50.854-67.536 29.038-2.268 51.976-26.55 51.976-56.095 0-12.52-8.456-23.099-19.965-26.365v-72.967c0-29.769-11.584-57.759-32.621-78.817-21.039-21.05-49.01-32.644-78.761-32.644h-26.702c-17.46 0-32.381 11.338-37.624 26.972-2.782-.838-5.681-1.299-8.616-1.299-21.941 0-81.457 13.206-93.205 73.507-.792 4.066 1.861 8.004 5.927 8.796.484.095.967.14 1.442.14 3.517 0 6.655-2.485 7.354-6.066 9.81-50.35 59.979-61.376 78.482-61.376 2.357 0 4.61.545 6.658 1.573.354 12.027 3.185 23.61 8.262 34.178v8.227c0 12.158-9.891 22.049-22.048 22.049-25.918 0-47.004 21.086-47.004 47.004v14.279c0 8.491-6.908 15.399-15.399 15.399h-10.678v-47.829c0-4.143-3.358-7.5-7.5-7.5s-7.5 3.357-7.5 7.5v48.876c-11.509 3.267-19.965 13.845-19.965 26.365 0 29.382 22.685 53.562 51.496 56.058 12.33 37.355 32.836 54.575 51.008 69.002l-5.265 41.715c-.363 2.875-2.382 5.293-5.146 6.161l-72.904 22.919c-23.911 7.678-41.439 27.785-45.747 52.477l-7.686 44.086c-.711 4.08 2.02 7.965 6.101 8.677.436.076.869.112 1.297.112 3.577 0 6.744-2.568 7.38-6.213l7.686-44.085c3.345-19.182 16.969-34.805 35.511-40.758l63.965-20.108c1.537 12.097 4.859 23.842 9.922 35.021 1.254 2.77 3.982 4.407 6.836 4.407 1.035 0 2.086-.216 3.09-.67 3.773-1.709 5.446-6.153 3.737-9.927-4.94-10.905-7.99-22.424-9.099-34.295 5.389-3.555 9.107-9.341 9.938-15.926l4.526-35.861c25.805 12.728 59.519 12.848 86.083-.705l4.615 36.565c.831 6.583 4.546 12.367 9.932 15.922-4.335 42.481-27.489 65.352-55.962 87.056-.917.75-2.248.75-3.165 0-8.469-7.094-21.445-16.74-29.051-25.423-2.763-3.087-7.505-3.35-10.59-.586-3.086 2.762-3.349 7.504-.586 10.59 6.57 7.886 22.574 20.306 30.733 27.032 3.209 2.623 7.143 3.936 11.077 3.936s7.868-1.312 11.077-3.936c36.149-26.779 55.652-54.184 60.953-93.205l63.928 20.095c18.586 5.968 32.21 21.591 35.555 40.771l7.686 44.086c.636 3.645 3.803 6.213 7.38 6.213.427 0 .861-.036 1.297-.112 4.08-.709 6.811-4.594 6.1-8.674zm-267.715-258.42h30.377c12.592 0 24.43-4.903 33.334-13.808 2.678-2.679 6.239-4.153 10.027-4.153s7.349 1.475 10.027 4.154c8.904 8.903 20.742 13.807 33.334 13.807h29.603l-.228 5.85-6.74 2.454c-42.27 15.393-88.86 15.48-131.189.244l-8.24-2.966zm160.415 33.288 1.491-38.191 16.733-22.665c-3.071 21.606-9.283 42.49-18.224 60.856zm58.056-67.286c0 19.44-13.553 35.775-31.731 40.134 4.865-16.895 7.872-34.738 8.792-52.68l10.378.133c.032.001.063.001.096.001s0 0 0 0c6.873 0 12.465 5.568 12.465 12.412zm-228.423-42.812v-14.279c0-17.647 14.357-32.004 32.004-32.004 16.416 0 30.365-10.737 35.214-25.554.955 1.068 1.938 2.116 2.952 3.143 10.079 9.979 21.551 17.047 33.176 20.438 3.977 1.156 8.141-1.123 9.3-5.1 1.16-3.977-1.123-8.141-5.099-9.301-11.67-3.404-21.028-10.959-26.765-16.638-12.367-12.421-20.231-30.619-20.045-49.6.107-13.281 11.159-24.087 24.636-24.087h26.702c25.742 0 49.946 10.032 68.15 28.247 18.206 18.225 28.232 42.45 28.232 68.215v71.823c-1.345-.017-9.556-.122-10.957-.14-8.278-.106-15.033-6.845-15.199-15.087 2.404-27.058-15.099-51.628-40.859-57.252-4.046-.888-8.043 1.68-8.927 5.728-.883 4.047 1.681 8.044 5.728 8.927 17.807 3.773 31.313 22.752 29.056 42.286 0 12.483 7.663 23.306 18.531 27.962l-25.162 34.083h-33.616c-8.585 0-16.657-3.343-22.727-9.413-5.511-5.513-12.839-8.548-20.634-8.548s-15.123 3.035-20.634 8.547c-6.071 6.071-14.143 9.414-22.728 9.414h-34.453l-24.331-33.858c10.841-4.651 18.455-15.427 18.455-27.952zm-61.042 42.812c0-6.844 5.592-12.412 12.465-12.412h10.462c.891 17.962 3.782 35.697 8.455 52.466-18.004-4.483-31.382-20.738-31.382-40.054zm39.802 6.969 15.901 22.127 2.147 39.16c-8.855-18.433-15.014-39.402-18.048-61.287zm56.756 105.533c-6.734-4.703-14.97-11.234-22.315-19.248l-.559-10.206c22.289 14.263 49.116 22.029 76.071 20.946 4.14-.154 7.37-3.636 7.215-7.774-.154-4.14-3.642-7.324-7.774-7.216-22.472.853-44.526-4.838-63.795-16.415l-12.709-7.636-.499-9.11c22.266 8.347 48.362 13.164 72.604 13.065 23.332.056 49.221-4.341 72.041-12.868l-.356 9.111c-10.526 6.654-22.294 13.881-34.877 17.948-3.927 1.316-6.043 5.567-4.726 9.495 1.052 3.137 3.975 5.117 7.11 5.117 9.863-2.074 22.321-8.653 31.789-14.518l-.286 7.335c-5.633 6.403-12.104 12.59-19.259 18.368-28.628 23.116-69.616 24.601-99.675 3.606z"/><path d="m301.361 186.347c-4.142 0-7.5 3.357-7.5 7.5v14.935c0 4.143 3.358 7.5 7.5 7.5s7.5-3.357 7.5-7.5v-14.935c0-4.143-3.358-7.5-7.5-7.5z"/><path d="m210.521 186.347c-4.142 0-7.5 3.357-7.5 7.5v14.935c0 4.143 3.358 7.5 7.5 7.5s7.5-3.357 7.5-7.5v-14.935c0-4.143-3.358-7.5-7.5-7.5z"/><path d="m199.511 177.109c6.688-4.416 15.331-4.416 22.018 0 1.272.84 2.707 1.242 4.126 1.242 2.435 0 4.823-1.185 6.266-3.368 2.282-3.456 1.331-8.108-2.126-10.392-11.709-7.732-26.841-7.732-38.549 0-3.457 2.283-4.408 6.936-2.125 10.392 2.281 3.457 6.934 4.407 10.39 2.126z"/><path d="m290.352 177.109c6.688-4.415 15.33-4.416 22.018 0 1.272.84 2.707 1.242 4.126 1.242 2.435 0 4.823-1.185 6.265-3.368 2.283-3.456 1.331-8.108-2.125-10.392-11.709-7.732-26.841-7.732-38.549 0-3.457 2.283-4.408 6.936-2.125 10.392 2.281 3.457 6.934 4.407 10.39 2.126z"/><path d="m374.5 487h-63c-4.142 0-7.5 3.357-7.5 7.5s3.358 7.5 7.5 7.5h63c4.142 0 7.5-3.357 7.5-7.5s-3.357-7.5-7.5-7.5z"/></g></svg>