<svg id="Capa_1" enable-background="new 0 0 512 512" height="512" viewBox="0 0 512 512" width="512" xmlns="http://www.w3.org/2000/svg"><g><path d="m504.5 222.542c-4.143 0-7.5 3.357-7.5 7.5v28.141h-7.773c.328-1.411.501-2.88.501-4.389v-18.223c0-10.69-8.697-19.389-19.389-19.389h-291.119l-52.076-32.425c-3.517-2.19-8.142-1.115-10.33 2.402-2.189 3.516-1.114 8.142 2.402 10.331l53.896 33.558c1.189.741 2.562 1.134 3.964 1.134h293.264c2.42 0 4.389 1.969 4.389 4.389v18.223c0 2.42-1.969 4.389-4.389 4.389h-299.269c-2.524 0-4.992-.705-7.136-2.039l-99.94-62.23c-2.055-1.279-2.686-3.991-1.407-6.046l9.633-15.469c.619-.995 1.59-1.689 2.731-1.955 1.145-.265 2.32-.07 3.314.549l15.479 9.639c3.514 2.19 8.14 1.113 10.33-2.401 2.189-3.517 1.114-8.142-2.401-10.331l-15.48-9.64c-4.396-2.735-9.597-3.598-14.64-2.426-5.045 1.174-9.33 4.241-12.067 8.638l-9.633 15.469c-5.649 9.075-2.863 21.056 6.212 26.706l82.767 51.537h-97.895v-186.819h10.938v3.055c0 4.143 3.357 7.5 7.5 7.5s7.5-3.357 7.5-7.5v-10.555c0-4.143-3.357-7.5-7.5-7.5h-51.876c-4.143 0-7.5 3.357-7.5 7.5v10.555c0 4.143 3.357 7.5 7.5 7.5s7.5-3.357 7.5-7.5v-3.055h10.938v209.73c0 13.93 11.333 25.262 25.263 25.262h128.322l31.503 19.984-31.944 11.905c-2.935 1.094-4.881 3.896-4.881 7.027v22.255h-63.2c-10.686 0-19.379 8.693-19.379 19.378v21.254c-9.756 3.169-16.828 12.346-16.828 23.146 0 13.415 10.913 24.328 24.328 24.328s24.328-10.913 24.328-24.328c0-10.799-7.072-19.977-16.828-23.146v-21.254c0-2.414 1.965-4.378 4.379-4.378h260.571c2.415 0 4.379 1.964 4.379 4.378v21.254c-9.756 3.169-16.828 12.346-16.828 23.146 0 13.415 10.913 24.328 24.328 24.328s24.328-10.913 24.328-24.328c0-10.799-7.072-19.977-16.828-23.146v-21.254c0-10.685-8.693-19.378-19.379-19.378h-67.618l-59.394-37.678 63.039-23.494h98.973c4.143 0 7.5-3.357 7.5-7.5s-3.357-7.5-7.5-7.5c-40.308 0-322.147 0-355.371 0-5.659 0-10.263-4.604-10.263-10.262v-7.913h456.062v7.913c0 5.658-4.604 10.262-10.262 10.262h-50.18c-4.143 0-7.5 3.357-7.5 7.5s3.357 7.5 7.5 7.5h50.18c13.93 0 25.262-11.332 25.262-25.262v-51.054c0-4.141-3.357-7.498-7.5-7.498zm-405.378 218.093c-5.144 0-9.328-4.185-9.328-9.328 0-5.118 4.143-9.285 9.251-9.327.026 0 .051.001.077.001s.052-.001.077-.001c5.108.042 9.251 4.209 9.251 9.327 0 5.143-4.184 9.328-9.328 9.328zm284.329 0c-5.144 0-9.328-4.185-9.328-9.328 0-5.118 4.143-9.285 9.251-9.327.026 0 .051.001.077.001s.052-.001.077-.001c5.108.042 9.251 4.209 9.251 9.327 0 5.143-4.184 9.328-9.328 9.328zm-107.498-73.106h-86.752v-17.046l37.72-14.058zm-47.288-47.761-21.14-13.411h57.124z"/></g></svg>