<?xml version="1.0" encoding="utf-8"?>
<!-- Generator: Adobe Illustrator 19.0.0, SVG Export Plug-In . SVG Version: 6.00 Build 0)  -->
<svg version="1.1" id="Capa_1" xmlns="http://www.w3.org/2000/svg" xmlns:xlink="http://www.w3.org/1999/xlink" x="0px" y="0px"
	 viewBox="-65 409 480 480" style="enable-background:new -65 409 480 480;" xml:space="preserve">
<style type="text/css">
	.st0{fill:#FFFFFF;}
</style>
<g>
	<g>
		<path class="st0" d="M212.6,506.3c11.2-10.2,18.4-25,18.4-41.3c0-30.9-25.1-56-56-56s-56,25.1-56,56c0,16.4,7.1,31.1,18.4,41.3
			C104.2,512.7,79,542,79,577v32c0,4.4,3.6,8,8,8h176c4.4,0,8-3.6,8-8v-32C271,542,245.8,512.7,212.6,506.3z M135,465
			c0-22.1,17.9-40,40-40s40,17.9,40,40s-17.9,40-40,40S135,487.1,135,465z M255,601H95v-24c0-30.9,25.1-56,56-56h48
			c30.9,0,56,25.1,56,56V601z"/>
	</g>
</g>
<g>
	<g>
		<path class="st0" d="M68.6,778.3C79.9,768.1,87,753.4,87,737c0-30.9-25.1-56-56-56s-56,25.1-56,56c0,16.4,7.1,31.1,18.4,41.3
			C-39.8,784.7-65,814-65,849v32c0,4.4,3.6,8,8,8h176c4.4,0,8-3.6,8-8v-32C127,814,101.8,784.7,68.6,778.3z M-9,737
			c0-22.1,17.9-40,40-40s40,17.9,40,40s-17.9,40-40,40S-9,759.1-9,737z M111,873H-49v-24c0-30.9,25.1-56,56-56h48
			c30.9,0,56,25.1,56,56V873z"/>
	</g>
</g>
<g>
	<g>
		<path class="st0" d="M356.6,778.3c11.2-10.2,18.4-25,18.4-41.3c0-30.9-25.1-56-56-56s-56,25.1-56,56c0,16.4,7.1,31.1,18.4,41.3
			C248.2,784.7,223,814,223,849v32c0,4.4,3.6,8,8,8h176c4.4,0,8-3.6,8-8v-32C415,814,389.8,784.7,356.6,778.3z M279,737
			c0-22.1,17.9-40,40-40s40,17.9,40,40s-17.9,40-40,40S279,759.1,279,737z M399,873H239v-24c0-30.9,25.1-56,56-56h48
			c30.9,0,56,25.1,56,56V873z"/>
	</g>
</g>
<g>
	<g>
		<path class="st0" d="M-16.8,664.7l-16,0.6c0.2,5.5,0.7,11.1,1.3,16.6l15.9-1.9C-16.2,675-16.6,669.8-16.8,664.7z"/>
	</g>
</g>
<g>
	<g>
		<path class="st0" d="M-31.5,632.2c-0.6,5.5-1.1,11-1.3,16.6l16,0.6c0.2-5.1,0.6-10.3,1.2-15.3L-31.5,632.2z"/>
	</g>
</g>
<g>
	<g>
		<path class="st0" d="M48.9,491.5c-4.4,3.3-8.7,6.9-12.8,10.6l10.7,11.9c3.8-3.4,7.8-6.7,11.8-9.8L48.9,491.5z"/>
	</g>
</g>
<g>
	<g>
		<path class="st0" d="M-13.3,568.4c-2.4,5-4.5,10.2-6.5,15.3l15,5.6c1.8-4.8,3.8-9.5,6-14.1L-13.3,568.4z"/>
	</g>
</g>
<g>
	<g>
		<path class="st0" d="M-25,599.6c-1.5,5.3-2.8,10.7-3.9,16.2l15.7,3.2c1-5,2.2-10,3.6-14.9L-25,599.6z"/>
	</g>
</g>
<g>
	<g>
		<path class="st0" d="M24.2,513.8c-3.8,4-7.5,8.2-11,12.5l12.4,10.1c3.2-3.9,6.6-7.8,10.1-11.5L24.2,513.8z"/>
	</g>
</g>
<g>
	<g>
		<path class="st0" d="M76.9,473.6c-4.8,2.6-9.7,5.4-14.4,8.4l8.7,13.5c4.3-2.8,8.8-5.4,13.2-7.8L76.9,473.6z"/>
	</g>
</g>
<g>
	<g>
		<path class="st0" d="M3.3,539.6c-3.1,4.6-6.1,9.3-8.8,14.1l13.9,8c2.5-4.4,5.3-8.8,8.2-13L3.3,539.6z"/>
	</g>
</g>
<g>
	<g>
		<path class="st0" d="M137.1,845.3l-3.2,15.7c5.4,1.1,10.9,2,16.4,2.6l1.9-15.9C147.2,847.1,142.1,846.3,137.1,845.3z"/>
	</g>
</g>
<g>
	<g>
		<path class="st0" d="M213.4,845.2c-5,1-10.1,1.8-15.2,2.5l1.9,15.9c5.5-0.7,11-1.6,16.4-2.7L213.4,845.2z"/>
	</g>
</g>
<g>
	<g>
		<path class="st0" d="M182.9,848.8c-5.1,0.2-10.3,0.2-15.4,0l-0.6,16c2.7,0.1,5.4,0.2,8.1,0.2c2.9,0,5.7-0.1,8.6-0.2L182.9,848.8z"
			/>
	</g>
</g>
<g>
	<g>
		<path class="st0" d="M313.9,502.2l-10.7,11.9c3.8,3.4,7.5,7,11,10.7l11.6-11C322.1,509.8,318.1,505.9,313.9,502.2z"/>
	</g>
</g>
<g>
	<g>
		<path class="st0" d="M336.8,526.3l-12.4,10.1c3.2,3.9,6.3,8.1,9.2,12.3l13.2-9C343.6,535.1,340.3,530.6,336.8,526.3z"/>
	</g>
</g>
<g>
	<g>
		<path class="st0" d="M382.8,648.8l-16,0.6c0.1,2.5,0.2,5.1,0.2,7.6c0,2.6,0,5.2-0.2,7.8l16,0.6c0.1-2.8,0.2-5.6,0.2-8.4
			C383,654.2,382.9,651.5,382.8,648.8z"/>
	</g>
</g>
<g>
	<g>
		<path class="st0" d="M355.6,553.7l-13.9,8c2.5,4.4,4.9,9,7.1,13.6l14.5-6.8C360.9,563.5,358.4,558.5,355.6,553.7z"/>
	</g>
</g>
<g>
	<g>
		<path class="st0" d="M369.8,583.8l-15,5.6c1.8,4.8,3.4,9.7,4.8,14.6l15.4-4.4C373.5,594.3,371.7,589,369.8,583.8z"/>
	</g>
</g>
<g>
	<g>
		<path class="st0" d="M378.9,615.8l-15.7,3.2c1,5,1.8,10.1,2.4,15.2l15.9-1.9C380.9,626.7,380,621.2,378.9,615.8z"/>
	</g>
</g>
<g>
	<g>
		<path class="st0" d="M287.5,482l-8.7,13.5c4.3,2.8,8.5,5.7,12.6,8.8l9.7-12.7C296.7,488.2,292.2,485,287.5,482z"/>
	</g>
</g>
<g>
	<g>
		<path class="st0" d="M258.2,466.3l-6.4,14.7c4.7,2,9.3,4.3,13.8,6.7l7.6-14.1C268.3,471,263.3,468.5,258.2,466.3z"/>
	</g>
</g>
</svg>
