<?xml version="1.0" encoding="utf-8"?>
<!-- Generator: Adobe Illustrator 19.0.0, SVG Export Plug-In . SVG Version: 6.00 Build 0)  -->
<svg version="1.1" id="Capa_1" xmlns="http://www.w3.org/2000/svg" xmlns:xlink="http://www.w3.org/1999/xlink" x="0px" y="0px"
	 viewBox="-60 403.3 490.7 490.7" style="enable-background:new -60 403.3 490.7 490.7;" xml:space="preserve">
<style type="text/css">
	.st0{fill:#FFFFFF;}
</style>
<g>
	<g>
		<path class="st0" d="M270.7,595.3c5.9,0,10.7-4.8,10.7-10.7v-128c0-29.4-23.9-53.3-53.3-53.3H-6.7c-29.4,0-53.3,23.9-53.3,53.3
			v384c0,29.4,23.9,53.3,53.3,53.3H228c29.4,0,53.3-23.9,53.3-53.3v-128c0-5.9-4.8-10.7-10.7-10.7s-10.7,4.8-10.7,10.7v128
			c0,17.6-14.4,32-32,32H-6.7c-17.6,0-32-14.4-32-32v-384c0-17.6,14.4-32,32-32H228c17.6,0,32,14.4,32,32v128
			C260,590.6,264.8,595.3,270.7,595.3z"/>
	</g>
</g>
<g>
	<g>
		<path class="st0" d="M420,638H78.7c-5.9,0-10.7,4.8-10.7,10.7c0,5.9,4.8,10.7,10.7,10.7H420c5.9,0,10.7-4.8,10.7-10.7
			S425.9,638,420,638z"/>
	</g>
</g>
<g>
	<g>
		<path class="st0" d="M427.5,641.2l-64-64c-4.2-4.2-10.9-4.2-15.1,0c-4.2,4.2-4.2,10.9,0,15.1l56.4,56.4l-56.4,56.4
			c-4.2,4.2-4.2,10.9,0,15.1c2.1,2.1,4.8,3.1,7.6,3.1s5.5-1,7.5-3.1l64-64C431.7,652.1,431.7,645.3,427.5,641.2z"/>
	</g>
</g>
</svg>
