<?xml version="1.0" encoding="utf-8"?>
<!-- Generator: Adobe Illustrator 19.0.0, SVG Export Plug-In . SVG Version: 6.00 Build 0)  -->
<svg version="1.1" id="Layer_1" xmlns="http://www.w3.org/2000/svg" xmlns:xlink="http://www.w3.org/1999/xlink" x="0px" y="0px"
	 viewBox="0 0 612 612" style="enable-background:new 0 0 612 612;" xml:space="preserve">
<style type="text/css">
	.st0{fill:url(#XMLID_5_);}
	.st1{fill:url(#XMLID_6_);}
	.st2{fill:url(#XMLID_7_);}
</style>
<linearGradient id="XMLID_5_" gradientUnits="userSpaceOnUse" x1="111.9065" y1="306.3071" x2="499.7707" y2="306.3071">
	<stop  offset="0" style="stop-color:#FFD942"/>
	<stop  offset="1" style="stop-color:#ECBE1D"/>
</linearGradient>
<path id="XMLID_3_" class="st0" d="M450,18.6H161.7c-27.5,0-49.8,22.3-49.8,49.8v288.3c0,27.5,22.3,49.8,49.8,49.8l0,0
	c18.4,0,35.3,10.1,43.9,26.4C253.6,522.7,305.8,594,305.8,594s50.2-72.2,97.4-161.1c8.6-16.3,25.6-26.5,44-26.5h2.8
	c27.5,0,49.8-22.3,49.8-49.8V68.4C499.8,40.9,477.5,18.6,450,18.6z"/>
<linearGradient id="XMLID_6_" gradientUnits="userSpaceOnUse" x1="203.9983" y1="149.0815" x2="407.6791" y2="266.6766">
	<stop  offset="0" style="stop-color:#ECBE1D"/>
	<stop  offset="1" style="stop-color:#FFD942"/>
</linearGradient>
<circle id="XMLID_2_" class="st1" cx="305.8" cy="207.9" r="117.6"/>
<linearGradient id="XMLID_7_" gradientUnits="userSpaceOnUse" x1="229.4044" y1="163.7498" x2="382.2729" y2="252.0084">
	<stop  offset="0" style="stop-color:#DFDFDE"/>
	<stop  offset="0.2085" style="stop-color:#E9E8E7"/>
	<stop  offset="0.6362" style="stop-color:#F7F7F6"/>
	<stop  offset="1" style="stop-color:#FFFFFF"/>
</linearGradient>
<circle id="XMLID_1_" class="st2" cx="305.8" cy="207.9" r="88.2"/>
</svg>
