<svg height="512" viewBox="0 0 60 60" width="512" xmlns="http://www.w3.org/2000/svg"><g id="Page-1" fill="none" fill-rule="evenodd"><g id="024---First-Aider-Female" fill="rgb(0,0,0)" fill-rule="nonzero" transform="translate(0 -1)"><path id="Shape" d="m55 31h-2v-1c-.0033061-2.7600532-2.2399468-4.9966939-5-5h-8c-2.7600532.0033061-4.9966939 2.2399468-5 5v1h-2c-2.7600532.0033061-4.9966939 2.2399468-5 5v.472c-.5547468-.2196492-1.1339103-.3717425-1.725-.453l-3.275-1.637v-3.056c1.7039193-1.8694991 3.0130489-4.0636262 3.849-6.451 2.151-.686 2.151-4.029 2.151-5.375.0113284-.9608531-.3466281-1.8893922-1-2.594-.0469265-4.7762112-3.1659415-8.97824005-7.724-10.406.4632441-.56408643.7188191-1.2700947.724-2-.1490337-2.06562781-1.9328688-3.62648352-4-3.5-2.0671312-.12648352-3.8509663 1.43437219-4 3.5.0051809.7299053.2607559 1.43591357.724 2-4.55642933 1.42964147-7.6731995 5.6317696-7.719 10.407-.65486424.7036366-1.01461294 1.631824-1.005 2.593 0 1.346 0 4.689 2.151 5.375.83595112 2.3873738 2.14508071 4.5815009 3.849 6.451v3.056l-3.322 1.661c-4.43530481.6524259-7.71126073 4.47409-7.678 8.957v13c0 1.6568542 1.34314575 3 3 3h51c2.209139 0 4-1.790861 4-4v-15c1.1045695 0 2-.8954305 2-2v-4c-.0033061-2.7600532-2.2399468-4.9966939-5-5zm-18-1c0-1.6568542 1.3431458-3 3-3h8c1.6568542 0 3 1.3431458 3 3v1h-14zm-7 12v15c.0041446.7042532.1960759 1.3946535.556 2h-12.556v-16.82l1.622 1.4c.4109466.327503.9362396.4761757 1.4578676.4126176s.9958515-.3340176 1.3161324-.7506176l4.031-5.16c.5407551.1333549 1.0674937.318199 1.573.552v1.366c0 1.1045695.8954305 2 2 2zm-17-8.736c1.1034749 1.0069327 2.5108449 1.6177313 4 1.736 1.4891551-.1182687 2.8965251-.7290673 4-1.736v1.322l-4 4-4-4zm7.892 8.768-2.423-2.087 3.731-3.728 2.274 1.137zm-5.892-37.532c0-.813.916-1.5 2-1.5s2 .687 2 1.5-.916 1.5-2 1.5-2-.687-2-1.5zm2 3.5c4.5802573.00711528 8.4266662 3.448707 8.941 8-3.11237.062233-6.0927998-1.2557313-8.141-3.6-.1904032-.2650071-.5020554-.4155637-.828-.4-.3228923.0104012-.6208693.1761509-.8.445-1.385 2.078-6.139 3.221-8.106 3.533.52391679-4.5401446 4.363735-7.96907561 8.934-7.978zm-8.991 15h-.037c-.972-.05-.972-2.643-.972-3.5 0-.8.467-1.5 1-1.5.04751449.0001526.09497586-.0031897.142-.01.683-.1 6.178-.952 8.881-3.491 2.4239948 2.2887266 5.6435119 3.5443275 8.977 3.501.533 0 1 .7 1 1.5 0 .857 0 3.45-.972 3.5-.2688922-.0147965-.5320805.0813707-.7280896.2660389-.1960092.1846683-.3076735.4416649-.3089104.7109611-.039 1.835-4.755 9.023-7.991 9.023s-7.952-7.188-7.991-9.023c-.01249878-.5432822-.45657404-.9771438-1-.977zm3.791 13.217 3.733 3.733-2.353 2.057-3.639-4.659zm-9.8 21.783v-13c-.04480894-3.3494083 2.312502-6.2514265 5.6-6.894l4.013 5.139c.3684244.4731397.9333463.7513628 1.533.755.4611153-.0031121.9076302-.1620531 1.267-.451l1.587-1.368v16.819h-13c-.55228475 0-1-.4477153-1-1zm54-1c0 1.1045695-.8954305 2-2 2h-20c-1.1045695 0-2-.8954305-2-2v-15h24zm-26-17v-4c0-1.6568542 1.3431458-3 3-3h22c1.6568542 0 3 1.3431458 3 3v4z"/><path id="Shape" d="m39 51h4v4c0 .5522847.4477153 1 1 1s1-.4477153 1-1v-4h4c.5522847 0 1-.4477153 1-1s-.4477153-1-1-1h-4v-4c0-.5522847-.4477153-1-1-1s-1 .4477153-1 1v4h-4c-.5522847 0-1 .4477153-1 1s.4477153 1 1 1z"/><circle id="Oval" cx="21" cy="48" r="1"/><circle id="Oval" cx="21" cy="52" r="1"/><circle id="Oval" cx="21" cy="56" r="1"/></g></g></svg>