<?xml version="1.0" encoding="utf-8"?>
<!-- Generator: Adobe Illustrator 19.0.0, SVG Export Plug-In . SVG Version: 6.00 Build 0)  -->
<svg version="1.1" id="Capa_1" xmlns="http://www.w3.org/2000/svg" xmlns:xlink="http://www.w3.org/1999/xlink" x="0px" y="0px"
	 viewBox="-49 393 512 512" style="enable-background:new -49 393 512 512;" xml:space="preserve">
<style type="text/css">
	.st0{fill:#FFFFFF;}
</style>
<g>
	<g>
		<path class="st0" d="M388,724c-27.9-27.9-61.1-48.5-97.3-61c38.8-26.7,64.3-71.4,64.3-122c0-81.6-66.4-148-148-148
			S59,459.4,59,541c0,50.5,25.5,95.3,64.3,122c-36.2,12.5-69.4,33.1-97.3,61c-48.4,48.4-75,112.6-75,181h40
			c0-119.1,96.9-216,216-216s216,96.9,216,216h40C463,836.6,436.4,772.3,388,724z M207,649c-59.6,0-108-48.4-108-108
			s48.4-108,108-108s108,48.4,108,108S266.6,649,207,649z"/>
	</g>
</g>
</svg>
