<?xml version="1.0" encoding="utf-8"?>
<!-- Generator: Adobe Illustrator 19.0.0, SVG Export Plug-In . SVG Version: 6.00 Build 0)  -->
<svg version="1.1" id="Layer_1" xmlns="http://www.w3.org/2000/svg" xmlns:xlink="http://www.w3.org/1999/xlink" x="0px" y="0px"
	 viewBox="-49 393 512 512" style="enable-background:new -49 393 512 512;" xml:space="preserve">
<style type="text/css">
	.st0{fill:#FFFFFF;}
</style>
<path class="st0" d="M351,393H9c-32,0-58,26-58,58v370c0,16.5,13.5,30,30,30h131.3c5.5,0,10-4.5,10-10s-4.5-10-10-10H-19
	c-5.5,0-10-4.5-10-10V451c0-21,17-38,38-38h298.2c-8.9,10.2-14.2,23.5-14.2,38v322.3c0,9.2-7.5,16.7-16.7,16.7
	c-7.2,0-13.6-4.6-15.9-11.4l-15.1-45.2c-4.3-12.8-16.2-21.3-29.6-21.3c-17.2,0-31.2,14-31.2,31.2v7.8h-51.8c-5.5,0-10,4.5-10,10
	c0,5.5,4.5,10,10,10h51.8v49.8c0,14.8,2.9,29.2,8.6,42.8l14.7,35.3c1.6,3.8,5.3,6.2,9.2,6.2c1.3,0,2.6-0.2,3.8-0.8
	c5.1-2.1,7.5-8,5.4-13.1l-14.7-35.3c-4.7-11.2-7-23-7-35.1v-77.5c0-6.2,5-11.2,11.2-11.2c4.8,0,9.1,3.1,10.6,7.7l15.1,45.2
	c5,15,19,25.1,34.8,25.1c20.3,0,36.7-16.5,36.7-36.7V601.8l13.4,13.3c23.8,23.8,37,55.5,37,89.1v106.3c0,27.5-6.2,55.2-18,80.1
	c-2.4,5-0.2,11,4.8,13.3s11,0.2,13.3-4.8c13.1-27.5,20-58.2,20-88.7V704.3c0-39-15.2-75.7-42.8-103.3L313,573.6V564h66
	c16.5,0,30-13.5,30-30v-83C409,419,383,393,351,393z M389,534c0,5.5-4.5,10-10,10h-66v-93c0-21,17-38,38-38s38,17,38,38V534z"/>
<path class="st0" d="M156,831c-2.6,0-5.2,1.1-7.1,2.9c-1.9,1.9-2.9,4.4-2.9,7.1c0,2.6,1.1,5.2,2.9,7.1s4.4,2.9,7.1,2.9
	c2.6,0,5.2-1.1,7.1-2.9c1.9-1.9,2.9-4.4,2.9-7.1c0-2.6-1.1-5.2-2.9-7.1C161.2,832.1,158.6,831,156,831z"/>
<path class="st0" d="M88.7,467c0-11-9-20-20-20h-44c-11,0-20,9-20,20v44c0,11,9,20,20,20h44c11,0,20-9,20-20V467z M68.7,511h-44v-44
	h44V511C68.7,511,68.7,511,68.7,511z"/>
<path class="st0" d="M88.7,587c0-11-9-20-20-20h-44c-11,0-20,9-20,20v44c0,11,9,20,20,20h44c11,0,20-9,20-20V587z M68.7,631h-44v-44
	h44V631C68.7,631,68.7,631,68.7,631z"/>
<path class="st0" d="M68.7,687h-44c-11,0-20,9-20,20v44c0,11,9,20,20,20h44c11,0,20-9,20-20v-44C88.7,696,79.7,687,68.7,687z
	 M68.7,751h-44v-44h44V751C68.7,751,68.7,751,68.7,751z"/>
<path class="st0" d="M247.3,531c5.5,0,10-4.5,10-10s-4.5-10-10-10h-68.9c-5.5,0-10,4.5-10,10s4.5,10,10,10H247.3z"/>
<path class="st0" d="M132.7,531c2.6,0,5.2-1.1,7.1-2.9s2.9-4.4,2.9-7.1s-1.1-5.2-2.9-7.1s-4.4-2.9-7.1-2.9c-2.6,0-5.2,1.1-7.1,2.9
	c-1.9,1.9-2.9,4.4-2.9,7.1s1.1,5.2,2.9,7.1C127.5,529.9,130,531,132.7,531z"/>
<path class="st0" d="M132.7,651h114.7c5.5,0,10-4.5,10-10s-4.5-10-10-10H132.7c-5.5,0-10,4.5-10,10S127.1,651,132.7,651z"/>
</svg>
