<?xml version="1.0" encoding="utf-8"?>
<!-- Generator: Adobe Illustrator 19.0.0, SVG Export Plug-In . SVG Version: 6.00 Build 0)  -->
<svg version="1.1"
	 id="svg3477" xmlns:dc="http://purl.org/dc/elements/1.1/" xmlns:cc="http://creativecommons.org/ns#" xmlns:rdf="http://www.w3.org/1999/02/22-rdf-syntax-ns#" xmlns:svg="http://www.w3.org/2000/svg" xmlns:sodipodi="http://sodipodi.sourceforge.net/DTD/sodipodi-0.dtd" xmlns:inkscape="http://www.inkscape.org/namespaces/inkscape" sodipodi:docname="Agra_district.svg" inkscape:version="0.46" inkscape:output_extension="org.inkscape.output.svg.inkscape" sodipodi:version="0.32"
	 xmlns="http://www.w3.org/2000/svg" xmlns:xlink="http://www.w3.org/1999/xlink" x="0px" y="0px" viewBox="452 -330.1 1500 1500"
	 style="enable-background:new 452 -330.1 1500 1500;" xml:space="preserve">
<style type="text/css">
	.st0{fill:none;stroke:#5D5D5D;stroke-width:42;stroke-miterlimit:10;}
</style>
<defs>
	
	
		<inkscape:perspective  id="perspective3485" inkscape:vp_z="744.09448 : 526.18109 : 1" inkscape:vp_y="0 : 1000 : 0" inkscape:vp_x="0 : 526.18109 : 1" sodipodi:type="inkscape:persp3d" inkscape:persp3d-origin="372.04724 : 350.78739 : 1">
		</inkscape:perspective>
</defs>
<sodipodi:namedview  width="750px" showgrid="false" inkscape:cy="750.00001" inkscape:cx="750.00001" inkscape:zoom="0.41866667" objecttolerance="10" guidetolerance="10" gridtolerance="10000" borderopacity="1.0" bordercolor="#666666" pagecolor="#ffffff" id="base" inkscape:window-y="-9" inkscape:window-x="122" inkscape:window-height="845" inkscape:window-width="724" inkscape:current-layer="layer1" inkscape:document-units="px" inkscape:pageshadow="2" inkscape:pageopacity="0.0">
	</sodipodi:namedview>
<path id="_x33_3" class="st0" d="M1003.9,72.3l2.2-0.5l3.2,3.2l0.5,1.6h2.2l0.5,1.1v1.1l-1.6,1.1l-1.1,2.2l1.1,1.6v1.1l-0.5,2.2
	l-0.5,1.1l-1.1-1.1l-1.1,3.2h3.8l0.5-1.1l1.1-0.5h0.5V87l1.6-5.4l5.9,1.6l3.8,1.6v1.6l-4.3,0.5l-1.1-0.5v3.8l3.8,1.6h2.2l2.7-1.1
	l1.1,0.5l-2.2,2.7l0.5,1.1l1.6,1.6l2.2,2.2l1.1,2.2l1.1,4.3l5.4,3.2h6.5l4.9-4.3l4.9-9.7l-2.7-3.2l5.9-7.6l2.7,1.1l0.5,1.1l8.1-0.5
	l9.7,9.7l8.6,5.4l5.9-0.5l2.7,3.2l-1.6,2.7l4.3,4.3l2.7-0.5l4.3,2.7l1.6,7l6.5,4.3l2.2,3.2l7.6-2.2l4.3,1.1l4.3,3.2l2.2,5.9l6.5,4.9
	l2.7-1.6l-3.2-18.9l6.5-5.4l5.4,0.5l3.8,2.2l-1.6,3.8l4.9,1.6l1.1,2.7l7,1.1l3.2-1.6l2.2,4.9l-0.5,3.2l2.2,3.8l4.9,3.8l4.3-1.1
	l5.4,1.6l0.5,3.2l3.8,1.6l-1.1,2.7l5.4,1.6l7.6,5.4l3.8-2.7l5.9,2.2l-1.1,2.7l0.5,4.3l7,2.2l6.5,4.3l3.8-4.3l2.7,3.8l3.8,2.2
	l2.2,3.2l6.5,5.4l23.7,5.4l4.3,7.6v7l8.6,11.3l7.6,8.1l-0.5,13.5l2.7-1.6l7-0.5l0.5-7l7,0.5l6.5,2.7l0.5,4.3l6.5,4.9l-1.1,7l12.4,7
	l17.8,11.9l10.8,1.6l18.9,17.3l5.4,1.1l7.6,5.9l4.9,3.2l4.9-1.1l-0.5-3.2l8.1-11.3h4.3l14.6,1.1l3.8,5.9l5.9,6.5l5.4-0.5l10.2,4.9
	l4.3,4.9l3.8,2.2l9.2,7.6l11.9,6.5l6.5,8.1l8.6,4.9l4.3,0.5l8.1-2.7l4.9,1.1l11.3-4.3l2.7,0.5l8.6-2.7h7.6l2.2,5.9l-0.5,5.4l4.3,4.3
	l-1.1,4.9l4.3,5.9l-3.2,8.6l2.2,5.4l-2.7,3.8l12.4,1.6l5.9-1.1l6.5,0.5l10.8-0.5l4.9,7l14.6,3.8l24.3-1.6l4.3,0.5l3.8,5.9l11.3,8.6
	l-1.1,3.8l5.4,6.5l7,0.5l3.8-1.6l6.5-7.6l-0.5-2.7l3.8-3.2l-4.3-7.6l3.8-3.2l-2.7-4.9l41.5,2.2l39.9,20.5l4.9,4.3l-1.6,3.2l-3.8,1.6
	l4.9,3.2l5.9-3.2l3.8-0.5l2.7,2.7l-1.1,4.9l-3.8,3.2l1.1,5.4l1.1,0.5l7,2.2l2.7,2.2l0.5,1.6l2.2,3.2l1.6,4.9v0.5l-3.2,2.7l-3.2,4.9
	l0.5,2.2l-0.5,1.1l-1.6,1.1v3.8v2.7l1.1,0.5l5.9-1.1l4.9-2.7l1.6,1.1l1.1,1.6l-0.5,1.6l-4.9,3.2l5.9,4.9h2.2v5.4l1.6,3.2l1.1,2.7
	l-2.2,1.1l1.1,1.1l-0.5,2.7l1.1,1.1l-1.6,1.1l-0.5,1.6h-0.5l-1.1,1.1l0.5,0.5l3.2,2.2l0.5,3.2l-1.1,1.1l0.5,1.1l0.5,0.5v0.5l1.6,1.6
	l3.2,2.7l2.2-1.1l1.1,1.1l1.1-2.2l5.9,0.5l1.6,0.5v2.2l-1.6,3.8l3.8,3.2l3.2,1.1l1.1-2.7v-1.1l6.5-3.8h2.2l2.7,1.1l1.6,1.1l1.1,4.3
	l-1.6,3.8h1.1l0.5,2.7l-0.5,3.2l-1.6,3.2l-2.7,3.8l3.2,5.4l2.2-0.5l2.2-1.6l2.2-1.6l3.8-0.5l1.6,3.2l2.2,4.3l1.1,5.9l2.2,1.1h2.7
	l2.7,0.5l7,1.6v5.9l2.2,3.2l-16.7,2.7l-4.9-0.5l-4.9,3.8l-12.9-5.4h-6.5l-2.7-2.7h-8.6l-4.3-0.5l0.5,5.9L1795,557l-0.5,3.8l-8.6,3.8
	l-4.9-1.6l-1.6,4.3l-6.5-2.7l-4.9,1.6l0.5,2.2l-0.5,11.9l8.1,2.2l6.5,0.5l1.6-2.2l4.9,1.1v2.2l3.8,4.9l3.2,1.1l1.1,2.2l10.2,1.1
	l10.2,2.7l-1.1,7l2.7,4.3l-1.6,2.7l-0.5,6.5l-2.2,2.7l-8.1-0.5l-0.5,4.3l-3.2,0.5l-3.8,2.7l-7-1.1l-5.9,8.6v2.2l4.9,3.2l-2.2,3.8
	l4.9,2.7l1.1,6.5l7.6,0.5l4.9,4.3l3.8,5.9l5.4,4.3l1.1,5.4l3.8,2.2l1.6-2.2l7,3.2l9.7,7.6h3.8l7-2.7l6.5,4.3l4.3,1.6l3.8,8.1
	l10.2,0.5l3.8,3.2l4.3-1.1l-0.5,9.2l3.8-1.6l7.6,4.3l5.9,5.9l-3.8,6.5l4.9,3.8l-2.7,2.2l-2.7-1.6l-7.6,0.5l0.5,7l-1.1,3.8l-3.8-2.2
	l-3.2,3.2l-4.9-2.7l-4.3,1.1l-3.2-5.9l-4.3,0.5v3.8l-4.3-1.1l-1.1-5.9l-7.6-3.2l-5.4,1.6l-1.1,12.9l-5.4,2.2l-13.5-0.5l-3.2-1.6
	l-1.1-6.5l-4.9-3.2l-3.2-1.1l-7.6,0.5l-4.9,2.2l-2.2,3.2l1.6,9.2l-0.5,2.7l-11.3,4.9l-12.9,9.7l-4.3,1.1l-4.9,7.6l-3.8,1.1l-0.5,3.2
	l-3.8,5.9l-3.2,2.2l1.1,5.4l-6.5,1.1l-1.1,4.9l-2.7,2.2l-6.5-1.1l-7,1.6l-4.3,5.4l-5.4,1.1l-7,7l-1.6-0.5l-7,2.7l-4.9,1.1l-7,5.4
	l-4.9,1.1l-3.8,5.9l-3.2-1.6l-6.5,2.2l-3.8,8.6l-4.9,2.2l-2.2-0.5l-1.1,8.1l1.6,2.2v8.1l-2.2-0.5l-3.2,12.9l-1.1,2.2l0.5,4.3
	l4.3,1.1v9.7l2.7,1.6v8.6l-1.1,2.2l2.7,8.1l4.3,5.9l1.1,4.3l-1.6,5.4l4.3,2.2l4.3,3.8l3.2,4.9l5.4-1.1v6.5h1.6l4.3,5.4l-2.7,2.2v3.2
	l3.2,2.2l3.2,5.4l-3.2,2.7l1.6,3.2l-1.6,7.6l-4.3,1.1l1.1,3.2l-13.5,2.7l-5.9,2.7v4.3l-2.2,4.9l3.2,3.8v4.9l5.4,1.6l2.7,6.5
	l-1.6,4.9l-5.9,2.2l-4.9,4.9l3.8,4.3l1.1,5.4l-4.9,7l0.5,5.9l-3.8,9.2l-1.6,5.9l-4.9,5.4l-5.4,4.9l-3.2,5.9v4.9l-11.3,6.5l-0.5,5.9
	l-4.3,8.1l-8.1,2.2l-3.2,4.3l-7.6,2.2l-4.3,0.5l-4.9-1.6l-9.7,1.1l-5.4,1.1l-2.7-0.5l-2.7-3.2l-8.1-3.8l-3.2-3.2l-2.7-4.3l-5.4-3.2
	h-2.2l-1.6-2.7l0.5-4.9l-10.2-2.2l-1.1-3.8l2.7-2.7v-5.9l-5.4-1.6h-3.2l-1.1-3.2l-7-5.4l-1.1-2.2l2.2-4.9l3.2,3.2l5.9,1.1l0.5-3.8
	l2.7-2.2l-2.2-11.3l4.3-2.7v-6.5l2.7-4.9l-0.5-5.4l0.5-5.9l-0.5-4.9l-7.6,0.5l-2.2-3.2l1.1-5.9l2.2-2.2l-0.5-10.2l2.7-4.9l-3.8-2.7
	v-8.6l5.4,3.2l10.2-2.7l-1.1-9.2l-4.9,0.5l-0.5-9.2l-7-1.1l-4.9,1.1l-2.2-1.6l1.1-5.4l-5.9-4.9l-4.9,2.7l-9.2,2.7l-2.7,2.2l-8.1,2.2
	l-2.2-5.4l-5.9,0.5l-1.6-1.6l-5.4,1.1v-2.2l-2.7-3.2h-2.2l-3.8,4.3l2.2,5.4l-1.6,4.3l1.1,8.1l-9.2-1.1l-2.7-3.2l-2.7-1.1l-3.8,2.2
	l-2.2-3.2l-1.1-7.6l-4.3-3.2l-7.6,1.6v-3.2l2.7-2.7l-0.5-10.2l-2.2-2.2h-5.9l2.2-7l-6.5-0.5l-2.2,1.6l-5.4-2.2l-3.8,2.2l-2.2-3.2
	l-3.2-2.7h-3.2l-10.8-5.9l-7.6,2.2l-0.5,2.2l-6.5-5.9l0.5-2.7l-4.9-2.2l-0.5-4.3l2.2-3.2l-1.6-4.3v-8.1l-5.4-4.3l-4.9-0.5l-3.2-2.7
	l-7,1.6l-14-8.6l-1.6,3.2l-4.3-1.1l-1.1-4.3l-5.4-2.2l-4.9,3.8l-4.9-4.3l6.5-5.4l-2.7-3.8h-4.3V850l4.9-3.8l-2.7-2.2l-4.3-0.5
	l1.1-3.2l-3.8-2.7l-5.9,2.2l-3.8-0.5l-0.5,3.2l3.2,1.1l-1.6,3.2l-4.9,0.5l-2.7,2.2v3.8l2.7,2.2l0.5,5.4l-2.2,1.6l-8.6-4.3v-3.8
	l-1.6-3.8l-7,1.6l-4.3-3.8l-3.2-4.9l-3.8-1.1l-11.3,1.6l1.6,2.2l-3.2,2.7v4.9l-2.2,2.2l2.2,3.8l0.5,3.8l-2.7,5.9l-4.9,7l-3.2,2.2
	l1.6,3.8l-2.2,1.1l1.1,6.5l-8.1-3.8l-1.1,5.4l-2.7,3.2l-2.7,4.3l-7-5.9l-2.2-5.9l-9.2-0.5l-4.9,3.2h-8.6l-3.2-6.5l-7,3.2l-1.6,1.6
	l-5.9,2.2h-6.5l-3.8-1.6l-0.5-5.9h3.8l5.9-5.9l-4.3-5.4l2.2-4.3l5.9-4.3l-1.6-3.2l1.6-2.7l-1.1-4.3l3.8-3.8l3.2-4.9l-6.5-4.9
	l-5.9-0.5l1.1,4.9l-2.2,5.4l-2.2,2.2l-3.8-3.2l-3.2,2.2l-5.4-1.1l-6.5,2.7l0.5,4.9l4.9,1.1l5.4,2.7v4.9h-7.6l-1.1-2.2l-10.2,3.8
	l1.1-5.9l-4.9,1.1l-2.2-3.2l-5.9-1.1l2.7-4.9l-5.4-6.5l-1.1,9.2l3.2,7l-4.9-2.7l-6.5,4.3l-4.9-3.2l-1.6-3.8l-3.8,2.2l2.7,5.9
	l-5.9,3.2l-2.2-4.9l-3.2-2.7l-3.2,2.2h-5.4l-2.7,3.2l-2.2,6.5l-7.6,4.3h-2.7l-4.3-3.8l-4.3-1.6l2.7-7l4.3-2.2l3.2-6.5l4.9-4.9v-2.2
	l7-4.3l5.4-0.5l1.6-1.6l-4.3-9.7l-0.5-4.3l-3.8,1.1l-3.8-2.7l-2.7-5.9l-5.4-0.5l-1.6-3.2l1.1-2.7l0.5-4.9l-1.6-4.9l1.6-2.7l-0.5-4.3
	l-6.5-6.5l-3.2-1.1l-2.2,4.9l-2.7-1.1l-3.2,1.6l-4.3-0.5l-0.5,4.3l-4.9,1.6v2.2l-4.3,2.2l-1.6,3.2l-8.1-3.2l-2.7,2.7h-9.2l-1.6,3.8
	l0.5,4.3l-3.8,2.7l0.5,3.8l-8.6,1.1l-5.4,3.2l-4.9,0.5l-3.8-1.1l-5.4,3.2l3.2,3.8l-1.6,3.2l1.6,5.4v3.8l-3.8,8.1l2.7,3.8h-5.4
	l-10.8-5.4l-5.4-3.8l-5.9,2.2l-5.4-0.5l-2.2,1.6l-5.9-1.1l-2.7-2.2l-3.8-0.5l-4.3-2.7l-1.1-3.2l-3.2,1.1l-4.3,6.5l-2.7,2.7l0.5,4.9
	l-2.7,0.5l-2.2,3.2l-5.4-2.7l1.6-7l-5.9,4.9l-0.5-3.8l-2.7-1.6l-2.2,3.8l-3.2-1.1l-1.6-5.9l0.5-4.3l3.8-3.8l1.1-3.8l3.8,1.1l2.2-3.8
	l-1.6-4.3l3.2-2.7l-9.2-1.6v-3.2l-5.4-2.7l-1.1,4.9l-2.7,0.5l-0.5-4.9l-2.7-5.4l2.2-3.2l-9.7-1.6l-5.9,5.9l-1.1,6.5l2.7,2.7l3.2-3.2
	l4.9,4.3l4.9-2.7v8.6l-5.4,2.2l-3.2-3.8l-2.7,5.9l1.1,4.3l3.2,2.7l2.2,4.9l-2.2,4.3l-3.8-0.5l-1.1,2.7l-3.8-2.2l1.1-2.2l-2.2-4.3
	l-4.3,1.1l2.2,2.7v5.4l-7.6-2.2l-2.2-4.9l-3.2,1.1l2.2,5.9l-8.6,1.1l-1.6-3.2l-2.7-3.2l1.6-3.8l-4.9-2.7l-1.1-3.2l-3.8,3.8l-1.1,4.3
	l-3.8,3.2l-3.2-1.6l2.7-5.9l-2.2-2.7l5.9-8.1l-5.4-1.6l-2.2-2.7l-0.5-5.4h-4.9l-2.7,6.5l4.3,2.2l1.1,3.2l-3.2,3.2l-2.7-3.2l-2.7-1.1
	l-5.4,2.2l-4.3,5.9l-4.3,3.8l-2.2-5.4l2.7-5.4l-2.7-3.2l1.1-3.8h4.3l2.7-4.9l5.4,2.2l1.1-3.2l4.9-2.7l-3.2-3.8l0.5-7.6l-4.9,3.2
	l-8.1-3.2l-5.4,6.5l2.7,4.9l-1.6,1.6l-3.2,10.2h-2.2l-5.4-7.6l1.6-4.9l-3.8,0.5v-4.9l3.8,1.1l3.8-4.3l0.5-4.3l7-7l4.9-0.5l2.7-2.2
	l4.9-0.5l-2.2,5.4l-6.5-0.5l0.5,2.7l7.6,2.7l1.6-3.2l4.9-0.5l-1.1-4.9l0.5-4.9l-2.2-3.8l-3.2-0.5l-2.2,2.7l-4.9-3.8l4.9-4.9l1.1-4.9
	l-3.8-4.9l4.9-2.7v-4.3l-3.2-1.6l-7-0.5l-3.2,3.8l1.1,3.8l-7.6,1.6l-1.1,2.7l3.2,2.7l2.2,4.9l-0.5,3.2l-11.9-6.5l-5.9,1.6l-5.9-3.2
	v5.4l4.3,3.2l3.2,3.8l4.3-2.7l1.1,3.2l-9.2,2.2l2.2,2.7l1.1,9.2l-5.4,1.6l-5.4-1.6l1.1-3.8l-9.7-2.2l2.2-3.2l5.4-4.9l-1.6-3.8
	l-5.9,0.5l-4.9,2.2l0.5,4.9l-5.9-1.6l-4.3,8.1l-0.5,4.9l-3.8,1.1l-4.9-3.8l0.5,7l-1.1,5.4l-3.8,0.5l-3.2-3.8l-3.8,3.8l-7,1.1v3.2
	l4.3,2.2l6.5-4.3l3.2,2.2l2.7-1.1l2.7,3.2h3.2l2.7,2.7l-1.1,5.9l1.6,5.4l4.3,9.2l0.5,11.9l4.3,1.6l3.8,5.9l0.5,5.4l-1.1,2.2
	l-1.1,8.1l-1.1,4.9l4.9,3.2l2.7,8.6l5.4,1.6l12.4,6.5l3.2,9.7l-3.2,3.8v5.9l1.6,12.9l-2.7,5.4l-3.2,3.2l1.6,4.9l0.5,7l4.9,1.6
	l4.3-2.7l5.4-0.5l2.7-3.8l3.2-2.7l3.2,0.5l2.2,5.4l2.2,1.6l1.6,4.9l5.9,5.4l-1.1,2.2l1.1,7l3.8,2.2l-4.3,2.7h-3l-2.2-3.2l-2.2,2.7
	l2.2,4.9l3.2,0.5l2.7,3.8l7-1.1l1.1,3.8l-1.6,2.2l-2.2,9.2v3.2l-6.5,7.6l-4.9,3.8l0.5,5.4l-5.9,3.8l0.5,5.4l-4.3,3.2l-3.2-0.5
	l-2.2,2.7l-3.2-1.1l-1.1,4.9l-3.8-0.5l-1.6-5.4l-3.8-7l-1.6,1.6l-3.8-2.7l-1.1,2.7l-3.8,1.1l-5.4-2.2l-2.7-5.9l-7-4.3l1.1-2.7
	l-3.2-1.6l-4.9-8.1l-4.9-0.5l-4.9-3.2l-2.2-3.2l-2.7-0.5l-4.3,5.4l-1.6,5.9l-4.9,2.7l-1.1,5.4l-4.3,2.2l-1.1,2.2l-3.8,0.5l-4.3-4.3
	l-3.8-2.7l-2.7-5.9l6.5-8.1l-4.9-5.4l-3.2-1.1l-9.7-7.6l-1.1-2.7l0.5-4.3l-4.3-1.6v-4.3l-3.8-2.2l1.1-3.8l5.4-2.2l2.7-12.9l-2.2-7
	l2.2-3.8l-3.2-7.6l-4.3-5.9l-1.6-4.9l1.1-3.8l-2.7-7l-4.3-6.5l-3.8-1.1l-0.5-4.3l1.1-3.2l5.4-2.2l2.7-3.8l8.1-5.4l1.1-2.2l4.9-3.2
	l3.2-4.3l3.8-2.2l2.2-5.4l-1.6-3.8l-1.1-7.6l1.6-2.2l6.5-2.2l3.8-4.9l6.5,0.5v-4.3l3.2-2.2l0.5-3.2h-4.9l-2.7-3.2l-3.2-1.1l1.6-5.4
	l-3.8-1.1l-3.2-4.9l1.1-3.2l-3.2-3.2v-3.2l-7-2.7l4.3-5.4l-1.1-3.8l-5.4-2.2l7-7.6l0.5-5.4l2.2-4.9l2.7,1.6l4.3-1.6l1.6-3.8l4.9-1.6
	l-2.2-5.9v-4.9l3.2-5.9l4.3,2.2l5.9-5.9l8.1,1.6l3.8,1.6h6.5l4.3-4.9l2.7,3.2l5.4,1.6l4.9-5.9l6.5-2.7l3.8,0.5l11.9-2.7l1.6-1.6
	l1.1-4.3v-5.9l-3.8-7l-5.4-2.2l-2.7-3.8v-4.3l5.4-2.7l4.3-7.6h3.8l-0.5-6.5l4.3,2.2l0.5,3.2l3.8,0.5l0.5-6.5l-4.3-2.2l2.7-5.4
	l4.9-1.1l0.5-4.9l-1.6-3.2l3.2-2.2l3.8-4.9l4.9-8.6l1.6-7l-1.1-2.2l7-7.6l3.8-1.6l-5.9-5.4l-1.1-3.8l-3.8-2.2l2.7-3.8h7.6l0.5-3.8
	l-5.4-3.8l5.4-1.1l2.7-3.2V624l4.3,0.5l3.8-3.8l-2.7-1.6l1.6-5.9l3.8-0.5l3.8-5.9h5.4l-1.6-8.1l-7.6-1.6l2.2-3.2l-1.6-5.4l7-2.7
	l1.6-5.4l-6.5-2.7l-4.3,2.2l-3.8-3.2l2.7-4.9V568l-5.9-4.3l0.5-2.2l-6.5-3.2v-4.9l-2.7-3.8l4.3-3.8l-0.5-3.2l-3.2-4.3l2.7-5.4
	l-3.2-2.2l-6.5,4.3l-2.2-1.6l2.2-5.4l-8.1-3.2l-7,1.6l-4.9-4.3l-5.4-8.1h-9.2l-3.8-5.4l-3.8,2.2l-0.5-3.8l-7,1.6l-3.8,4.9l-7-1.6
	l-3.2,4.3l-7-0.5l-9.2-5.4l-10.2-2.2l-2.7-1.6l-3.2-5.9l-7.6,0.5l-4.3-8.6l-3.8-0.5l-10.8,1.6l-2.7,3.2l-0.5,4.9l-1.5,1.5l-6.5-3.2
	H718l-1.1-8.6l4.3-1.1l3.8-3.8l2.2-6.5h-4.9l-8.1-2.7l-9.2-2.2l-4.9,0.5v5.4l-2.2,3.8l-2.7,1.6l-4.9-2.7h-3.2v6.5l-1.6,1.6l-3.8-7
	l-4.3-0.5l-2.7,3.2l-2.2-3.2l-4.3,2.7l-2.2-2.7l-3.8-0.5l-3.2,5.4l-3.8-3.2l-11.9-4.9l-3.2,1.1l-4.3-3.2l-3.2,2.2l-4.3,1.1l-2.7,3.8
	l1.1,4.9l-8.1,1.6l-2.7,3.2L610,498l-2.7,2.7l-7,0.5l-1.1,1.6h-8.1l-1.6-4.3l-2.7-0.5l-3.2,12.4l2.2,4.3l-2.2,2.7l-5.9,1.1l2.7-4.3
	l-2.2-2.7l-4.3-1.1l2.2-6.5l-4.3-4.9l1.1-5.4l5.4-1.6l0.5-2.7l5.4-3.2l17.8-5.4l11.3-7.6l9.2-2.7l4.3-2.2l3.8,0.5l1.6-5.4l-1.6-4.3
	l-2.7,1.6v5.4h-3.2l-5.9-9.7l-2.7,5.4l-10.8-1.6l-7-3.8l1.1-6.5l-3.7-0.6l-3.2,3.2l-1.6-4.3l4.9-5.9l9.7-2.7l-1.1-2.2l2.7-3.2
	l1.6-4.3l2.7,1.1l4.3-1.1l3.8-5.4l-5.9-2.7l0.5-4.9l-3.8-5.4l-3.2-1.6l0.5-3.2l-3.2-2.7l3.8-2.7l0.5-5.4l-4.3,0.5l-3.2,2.2l-5.9-3.2
	l-8.1-8.1l-5.9-0.5l-6.5-3.2l-2.7-5.4l2.2-7.6l-6.5-4.3v-4.3l-3.2-3.2l-6.5-1.1l-1.6-3.2v-6.5l3.2-4.9l-4.3-0.5l-2.7-3.2l5.9-8.6
	l-1.6-11.3l-5.9-1.1l-1.1-3.2l2.7-1.6l-1.6-4.3l0.5-6.5l-5.4-3.8l7-4.9l4.9-5.9l5.9-1.1l7.6,1.1l-2.2-4.9l3.8-2.7l3.8,3.2l4.9-3.2
	l1.1-3.8l-1.1-4.3l9.2,0.5l3.2-3.8v-3.2l-4.9-1.6l4.9-4.3l-4.6-3.8l-1.1-2.2l-5.4-5.9l1.1-2.2l-2.7-5.4l0.5-3.8l4.9-3.8v-8.6
	l5.9-1.6l1.1-4.3l-2.7-3.2l-1.1-4.9l3.8-2.2l0.5-2.7h-4.8l-8.6-3.2l1.1-2.7l3.8,0.5l0.5-5.9l-5.4-7l5.4-3.2l-1.6-4.9l-3.2-2.7
	l1.1-4.3l-7-3.8l-2.2-4.9l-4.9-0.5v-2.6l-4.3-1.1l-2.7-4.9l-4.3-2.2v-1.6l-1.1-1.6l-3.2-3.8l-2.2-1.6l-1.6-5.9v-1.1l3.2-3.2l3.2-1.1
	l1.6-3.8l-4.9-4.9l1.1-5.4l2.2-4.3l-1.1-4.3l-1.1-1.1l-3.8,1.1l-0.5,0.5l-1.6-2.2l-2.7-3.8l-0.5-0.5h-2.2l-0.5-2.7l-1.1-1.1
	l-3.2-2.7l-1.6-1.6l0.5-1.6h-1.6h-1l-2.2-1.6l-0.5-1.6l3.8-2.2l0.5-4.9l-2.2-5.9l-2.2-0.5h-1.1l-1.1-4.9l6.5-2.2l-3.8-4.3l1.6-3.2
	l-2.7-2.2v-3l4.3-9.7l-4.3-3.2l-5.4-5.4l-1.1-6.5l-5.9-4.9l2.7-7l-2.2-3.8l2.7-5.9l-2.7-9.7l3.2-2.2l-2.7-7.6l4.3-9.2l-1.1-5.9
	l-4.9-1.1l-0.5-5.9l3.8-1.1l-2.7-8.1l2.7-4.3l-3.8-3.2l1.1-5.9l-1.6-3.8l-3.2-2.2l-2.2-4.3l4.3-4.3l-1.1-4.9l-3.2-5.4l4.3-9.7
	l3.8-2.2l-1.6-4.9l1.1-3.2l2.7-1.1v-3.2l-5.4-7l1.1-5.4l6.5-3.8l0.5-4.9l2.2-2.7v-3.8l2.7-5.9l-0.5-5.9l1.6-4.3l2.7-1.6l8.6-12.4
	l4.3-9.7l-0.5-3.2l4.9-2.2l6.5-1.1l7.6-5.9l3.8-0.5l3.8-3.2l-0.5-7.6l2.2-4.9h4.3l4.9-4.3l4.3-9.7l4.3-5.4l2.2-5.9l7.6-5.4l-0.5-5.4
	l4.3-7l-3.2-3.2l-2.2-3.8l13.5-1.6l4.9,5.4h2.2l4.3,7.6l2.2,2.7l7.6,2.7l10.8,7.5l9.7,4.3l1.1-1.1l8.6,3.8l2.2,3.8l-4.3,4.9
	l-1.6,6.5l-4.3,4.9l-3.2,6.5l-6.5,8.1l-6.5-1.1l-4.9,11.3l2.7,3.2l-3.8,3.2l-2.2,4.9v7.6l-4.3,4.9l2.7,4.9l-2.2,2.2l-3.2,7.6
	l4.9,2.7l2.2,9.2l4.3,5.4l-0.5,8.6l1.1,2.2l-1.6,3.8l7,3.8l-1.1,3.8l5.4,2.7l2.7-0.5l7-6.5l4.9,0.5l3.2-2.7l4.3-0.5l1.1,5.9l3.2,3.2
	l2.2,5.9v5.9l-4.3,2.7l-0.5,2.7l6.5,1.1l-1.1,6.5l9.7,0.5l2.2-4.3v-4.3l2.7-2.2l3.8,0.5l2.2-5.4l3.2-1.6l4.9-5.4l1.1-3.8l4.9-0.5
	l4.9-6.5l5.4-1.6l1.6,2.7l13.5-11.3l5.4-8.1l9.7,4.3l4.9,0.5l2.2,2.2l11.9,4.3l3.8,10.8l0.5,8.6l3.2,5.4l8.6,9.2l8.1,5.9l3.8,1.1
	l9.7,8.6h5.9l7.6,4.9l18.3,5.4l6.5,0.5l-1.1,7l-1.6,3.2l-5.4,4.9l-8.1,3.2l-5.4,5.9l-4.9-1.6l-5.9,4.3l0.5,3.2l5.4,5.9l7.6,5.9
	l2.7,1.1l3.2-1.6l5.9,2.2l6.5,10.2l1.1,8.1l7.6,2.7l3.8-3.2l6.5,10.2h3.2l-1.1-7l5.9-1.1l5.4,0.5l4.9,4.3l3.2-0.5l4.3,3.2l0.5,4.3
	l-1.6,3.8l1.6,4.3l3.8,2.2l-2.2,4.9l2.7,2.7l6.5-3.2l6.5,4.9l7.6,8.6l12.9,2.7l2.2-3.8l3.2,7.6l4.3,0.5l-1.1,9.7l2.7,6.5l4.3-1.1
	l4.9,0.5l2.7-1.6l5.9,0.5l4.9-5.4l3.8,2.2l-0.5,7l4.9-1.1l2.7-3.2l4.9-0.5l6.5,4.3h2.2l3.8-3.8l4.3-2.7L1003.9,72.3L1003.9,72.3z"/>
</svg>
