<?xml version="1.0" encoding="utf-8"?>
<!-- Generator: Adobe Illustrator 26.0.1, SVG Export Plug-In . SVG Version: 6.00 Build 0)  -->
<svg version="1.1" id="Isolation_Mode" xmlns="http://www.w3.org/2000/svg" xmlns:xlink="http://www.w3.org/1999/xlink" x="0px"
	 y="0px" viewBox="0 0 799 222" style="enable-background:new 0 0 799 222;" xml:space="preserve">
<style type="text/css">
	.st0{fill-rule:evenodd;clip-rule:evenodd;fill:#FFFFFF;}
	.st1{fill:#FFFFFF;}
</style>
<path class="st0" d="M284.8,116.9V36.5c0-2.5-0.4-4-1.1-4.7c-0.8-0.7-2.3-1.1-4.6-1.1h-67.6c-2.1,0-3.5,0.4-4.2,1.2
	c-0.7,0.8-1.1,2.3-1.1,4.6v90.3c0,3.3,0.3,5.3,1,5.9c0.6,0.6,2.1,0.9,4.2,0.9h27c2.1,0,3.7-0.2,4.9-0.7c1.2-0.5,2.4-1.2,3.7-2.3
	l5.6-4.8c1.8-1.6,3.7-2.7,5.5-3.3c1.8-0.7,4.4-1,7.9-1h14.3c1.8,0,3-0.3,3.6-0.9C284.5,119.8,284.8,118.7,284.8,116.9L284.8,116.9z
	 M302.2,139.4c0,2.7-1,5-2.9,6.8s-4.3,2.7-7.2,2.7h-2.7c-2.1,0-3.5,0.4-4.2,1.2c-0.7,0.7-1.1,2.3-1.1,4.6v1.9c0,2.3-0.4,3.9-1.1,4.6
	c-0.8,0.8-2.2,1.2-4.2,1.2h-18.6c-2,0-3.4-0.4-4.1-1.2c-0.7-0.8-1.1-2.3-1.1-4.6v-1.9c0-2.3-0.3-3.9-1.1-4.6
	c-0.7-0.8-2.1-1.2-4.2-1.2h-50.4c-2.9,0-5.3-0.9-7.3-2.7c-1.9-1.8-2.9-4.1-2.9-6.8V24.6c0-2.2,0.8-4.1,2.5-5.7s3.7-2.4,6.1-2.4h95.8
	c2.4,0,4.5,0.8,6.1,2.3s2.4,3.5,2.4,5.8v114.8H302.2z M384.3,134.5c1,0,1.7-0.2,2-0.7c0.4-0.5,0.6-1.3,0.6-2.7V61.6
	c0-1.2,0.2-2.2,0.8-2.8c0.5-0.7,1.2-1,2.1-1h10.9c0.9,0,1.6,0.3,2.1,1c0.5,0.6,0.8,1.6,0.8,2.8v82.5c0,1.6-0.5,2.8-1.6,3.6
	c-1.1,0.8-2.7,1.2-4.8,1.2h-71.8c-2.2,0-3.8-0.4-4.8-1.2c-1-0.8-1.6-2-1.6-3.7V61.5c0-1.2,0.2-2.2,0.7-2.8c0.5-0.7,1.1-1,2-1H334
	c1,0,1.7,0.3,2.2,0.9s0.7,1.5,0.7,2.9v28.8c0,1.2,0.1,2.1,0.2,2.9c0.2,0.8,0.5,1.5,0.9,2.1l5.1,8.2c1.3,2.2,2.3,4.5,2.9,6.7
	s0.9,5.1,0.9,8.7v1.4v11.6c0,0.8,0.2,1.4,0.5,1.8s0.8,0.6,1.5,0.6h35.4V134.5z M448.7,132.8h31.2c1.6,0,2.6-0.2,3-0.6
	s0.7-1.5,0.7-3.1v-22.3c0-1.9-0.2-3.2-0.7-3.7s-1.4-0.8-3-0.8h-31.2c-1.4,0-2.3,0.2-2.7,0.6c-0.4,0.3-0.7,1.3-0.7,3v0.9v22.3
	c0,1.3,0.2,2.3,0.8,2.9C446.6,132.5,447.5,132.8,448.7,132.8L448.7,132.8z M426.7,148.9c-2.5,0-4.4-0.8-6-2.5
	c-1.5-1.7-2.3-3.8-2.3-6.5v-45c0-2.2,0.9-4.1,2.6-5.6c1.8-1.5,3.9-2.3,6.6-2.3h53.1c1.3,0,2.1-0.2,2.3-0.6c0.3-0.3,0.4-1.1,0.4-2.3
	v-8.6c0-1-0.2-1.8-0.8-2.2c-0.5-0.4-1.5-0.6-2.9-0.6h-55.9c-2.3,0-3.8-0.3-4.4-0.9c-0.7-0.6-1-1.6-1-3.1v-6.2c0-2.1,0.3-3.4,1.1-4
	c0.7-0.6,2.1-0.9,4.3-0.9H491c2.7,0,4.7,0.7,6.1,2.1c1.3,1.4,2,3.4,2,6.2v63c0,1.5,0.3,2.6,1,3.3c0.7,0.7,1.7,1.1,2.9,1.1h3.2
	c1.3,0,2.3,0.4,2.9,1.1c0.7,0.7,1,1.8,1,3.2v6.2c0,1.5-0.4,2.6-1.3,3.5c-0.8,0.9-2,1.3-3.4,1.3h-78.7V148.9z M546.2,72
	c-1.3,0-2.1,0.2-2.5,0.5c-0.5,0.3-0.7,1.1-0.7,2.2v13.1c0,1.3,0.2,2.1,0.6,2.5c0.3,0.4,1,0.6,2,0.6h35.9c1.2,0,2-0.2,2.4-0.6
	c0.5-0.4,0.7-1.2,0.7-2.3V75.8c0-1.3-0.2-2.3-0.7-2.9s-1.2-0.9-2.4-0.9L546.2,72L546.2,72z M524.4,148.9c-1.9,0-3.7-0.8-5.4-2.4
	s-2.5-3.3-2.5-5.1V64.7c0-2.1,0.8-3.7,2.4-5c1.6-1.2,3.7-1.9,6.4-1.9H593c2.3,0,4.3,0.7,6,2.1s2.5,3,2.5,4.8v34.2
	c0,1.8-0.6,3.2-1.8,4.3c-1.2,1.1-2.8,1.6-4.9,1.6h-48c-1.5,0-2.5,0.2-3,0.8c-0.5,0.5-0.8,1.7-0.8,3.5v20.6c0,1.9,0.1,3.1,0.4,3.5
	c0.2,0.4,0.9,0.7,2,0.7h1.9H582c1.2,0,1.9-0.2,2.2-0.6c0.3-0.3,0.4-1.1,0.4-2.3v-7.7c0-0.8,0.2-1.5,0.6-1.8c0.4-0.4,1.3-0.6,2.6-0.6
	H598c1.4,0,2.3,0.3,2.8,0.8c0.5,0.6,0.7,1.6,0.7,3.1v16.7c0,2.9-0.5,4.8-1.6,5.9s-3,1.6-5.7,1.6h-69.8V148.9z M615.6,142.1V65.7
	c0-2.3,0.8-4.2,2.4-5.7c1.6-1.5,3.7-2.2,6.3-2.2H677c2.2,0,4,0.7,5.5,2s2.2,3,2.2,5.1v14.6c0,2.4-0.4,4-1.1,4.8
	c-0.8,0.8-2.1,1.2-4,1.2h-7.7c-1.7,0-2.9-0.3-3.6-1c-0.7-0.7-1.1-1.8-1.1-3.3v-5.9c0-1.5-0.2-2.5-0.6-2.8c-0.3-0.4-1.2-0.6-2.5-0.6
	H636c-1.2,0.1-2,0.3-2.5,0.8c-0.4,0.5-0.7,1.6-0.7,3.3v9.2c0,1.9,0.2,3.6,0.5,5.1s0.9,2.8,1.6,4.1l5.4,10.3c0.8,1.7,1.5,3.2,1.9,4.7
	s0.6,3.2,0.6,5v1.2v27.1c0,2.1-0.5,3.6-1.5,4.6s-2.6,1.5-4.7,1.5H622c-1.8,0-3.3-0.7-4.6-1.9C616.3,145.7,615.6,144.1,615.6,142.1
	L615.6,142.1z M724.2,72c-1.3,0-2.1,0.2-2.5,0.5c-0.5,0.3-0.7,1.1-0.7,2.2v13.1c0,1.3,0.2,2.1,0.6,2.5c0.3,0.4,1,0.6,2,0.6h35.9
	c1.2,0,2-0.2,2.4-0.6c0.5-0.4,0.7-1.2,0.7-2.3V75.8c0-1.3-0.2-2.3-0.7-2.9s-1.2-0.9-2.4-0.9L724.2,72L724.2,72z M702.4,148.9
	c-1.9,0-3.7-0.8-5.4-2.4s-2.5-3.3-2.5-5.1V64.7c0-2.1,0.8-3.7,2.4-5c1.6-1.2,3.7-1.9,6.4-1.9H771c2.3,0,4.3,0.7,6,2.1s2.5,3,2.5,4.8
	v34.2c0,1.8-0.6,3.2-1.8,4.3c-1.2,1.1-2.8,1.6-4.9,1.6h-48c-1.5,0-2.5,0.2-3,0.8c-0.5,0.5-0.8,1.7-0.8,3.5v20.6
	c0,1.9,0.1,3.1,0.4,3.5c0.2,0.4,0.9,0.7,2,0.7h1.9H760c1.2,0,1.9-0.2,2.2-0.6c0.3-0.3,0.4-1.1,0.4-2.3v-7.7c0-0.8,0.2-1.5,0.6-1.8
	c0.4-0.4,1.3-0.6,2.6-0.6H776c1.4,0,2.3,0.3,2.8,0.8c0.5,0.6,0.7,1.6,0.7,3.1v16.7c0,2.9-0.5,4.8-1.6,5.9s-3,1.6-5.7,1.6h-69.8
	V148.9z"/>
<path class="st0" d="M98.1,46.1c27.7,0.8,49.6,23.9,48.9,51.7c-0.3,11-4.1,21-10.3,29.1l-41-19.9l-31.5,27.6
	c-11.2-9.5-18.1-23.8-17.7-39.7C47.3,67.2,70.4,45.3,98.1,46.1L98.1,46.1z M123.8,138.7L99.3,126l-10.6,20c2.2,0.4,4.4,0.6,6.7,0.6
	C105.8,146.9,115.6,143.9,123.8,138.7z"/>
<path class="st0" d="M79.3,151.9l-13.5-11.4l30.8-27l81,39.2h-14.4L97,118.6L79.3,151.9L79.3,151.9z M84,15.6
	c-36.8-1-67.4,28-68.4,64.7c-0.9,31.2,19.8,57.9,48.5,66l-2.6-2.2c-15.1-11.2-24.7-29.3-24.1-49.4c0.9-32.8,28.2-58.7,61-57.8
	c19.8,0.6,37.1,10.7,47.5,26C137.8,36.2,113.4,16.5,84,15.6z"/>
<g>
	<path class="st1" d="M362.1,203.4c0.1,0.2,0.1,0.3,0.1,0.5s-0.1,0.2-0.1,0.3c-0.1,0.1-0.2,0.1-0.4,0.1c-0.2,0-0.4,0-0.6,0
		s-0.5,0-0.6,0c-0.2,0-0.3,0-0.4-0.1c-0.1,0-0.2-0.1-0.2-0.1c0-0.1-0.1-0.1-0.1-0.2l-2.3-6.4H347l-2.2,6.4c0,0.1-0.1,0.2-0.1,0.2
		s-0.1,0.1-0.2,0.2c-0.1,0-0.2,0.1-0.4,0.1c-0.2,0-0.4,0-0.6,0c-0.3,0-0.5,0-0.6,0s-0.3-0.1-0.4-0.1c-0.1-0.1-0.1-0.1-0.1-0.3
		c0-0.1,0-0.3,0.1-0.4l8.4-22.9c0-0.1,0.1-0.2,0.2-0.3c0.1-0.1,0.2-0.1,0.3-0.2c0.1,0,0.3-0.1,0.4-0.1c0.2,0,0.4,0,0.6,0
		s0.4,0,0.6,0s0.3,0,0.4,0.1s0.2,0.1,0.3,0.2c0.1,0.1,0.1,0.2,0.2,0.3L362.1,203.4z M352.1,182.6L352.1,182.6l-4.5,12.9h9.2
		L352.1,182.6z"/>
	<path class="st1" d="M392.2,200.9c0,0.1,0,0.3,0,0.4s0,0.2-0.1,0.3c0,0.1-0.1,0.2-0.1,0.2s-0.1,0.2-0.2,0.3
		c-0.1,0.1-0.4,0.3-0.8,0.6c-0.4,0.3-0.9,0.5-1.5,0.8s-1.3,0.5-2.1,0.7s-1.6,0.3-2.6,0.3c-1.5,0-2.9-0.3-4.1-0.8
		c-1.2-0.5-2.3-1.3-3.1-2.3s-1.5-2.3-2-3.8s-0.7-3.2-0.7-5.1c0-2,0.2-3.7,0.7-5.3c0.5-1.6,1.2-2.9,2.1-4s2-1.9,3.2-2.5
		c1.3-0.6,2.6-0.9,4.2-0.9c0.7,0,1.4,0.1,2.1,0.2c0.7,0.1,1.3,0.3,1.9,0.5s1.1,0.5,1.5,0.7c0.5,0.3,0.8,0.5,0.9,0.7s0.3,0.3,0.3,0.4
		s0.1,0.2,0.1,0.3c0,0.1,0,0.2,0.1,0.3c0,0.1,0,0.3,0,0.4c0,0.2,0,0.3,0,0.5s0,0.2-0.1,0.3c0,0.1-0.1,0.2-0.2,0.2
		c-0.1,0-0.1,0.1-0.2,0.1c-0.2,0-0.4-0.1-0.7-0.4s-0.7-0.5-1.2-0.8s-1.1-0.6-1.9-0.8c-0.7-0.3-1.6-0.4-2.7-0.4
		c-1.1,0-2.2,0.2-3.1,0.7s-1.7,1.1-2.4,2s-1.2,2-1.6,3.2c-0.4,1.3-0.6,2.8-0.6,4.4s0.2,3,0.5,4.3c0.3,1.2,0.8,2.3,1.5,3.1
		c0.7,0.8,1.5,1.5,2.4,1.9c1,0.4,2.1,0.7,3.3,0.7c1,0,1.9-0.1,2.6-0.4c0.7-0.3,1.4-0.5,1.9-0.8s1-0.6,1.3-0.8
		c0.3-0.3,0.6-0.4,0.8-0.4c0.1,0,0.1,0,0.2,0c0,0,0.1,0.1,0.1,0.2s0.1,0.2,0.1,0.3S392.2,200.7,392.2,200.9z"/>
	<path class="st1" d="M423.4,203.8c0,0.1,0,0.1-0.1,0.2s-0.1,0.1-0.2,0.1s-0.2,0.1-0.4,0.1s-0.3,0-0.5,0s-0.4,0-0.5,0
		s-0.3-0.1-0.4-0.1c-0.1,0-0.1-0.1-0.2-0.1s-0.1-0.1-0.1-0.2v-21.7l0,0l-9.5,21.8l-0.1,0.1c0,0-0.1,0.1-0.2,0.1s-0.2,0.1-0.3,0.1
		s-0.3,0-0.4,0c-0.2,0-0.3,0-0.4,0c-0.1,0-0.2,0-0.3-0.1c-0.1,0-0.1-0.1-0.2-0.1l-0.1-0.1l-9-21.8l0,0v21.7c0,0.1,0,0.1-0.1,0.2
		s-0.1,0.1-0.2,0.1s-0.2,0.1-0.4,0.1c-0.1,0-0.3,0-0.6,0c-0.2,0-0.4,0-0.5,0s-0.3-0.1-0.3-0.1s-0.1-0.1-0.2-0.1c0-0.1,0-0.1,0-0.2
		v-22.5c0-0.4,0.1-0.8,0.4-0.9c0.2-0.2,0.5-0.3,0.7-0.3h1.2c0.3,0,0.6,0,0.8,0.1s0.4,0.2,0.6,0.3c0.2,0.1,0.3,0.3,0.5,0.5
		s0.2,0.4,0.3,0.6l7.9,19.1h0.1l8.3-19c0.1-0.3,0.3-0.5,0.4-0.8s0.3-0.4,0.4-0.5c0.2-0.1,0.3-0.2,0.5-0.3c0.2,0,0.4-0.1,0.6-0.1h1.4
		c0.1,0,0.2,0,0.4,0.1c0.1,0,0.2,0.1,0.3,0.2s0.2,0.2,0.3,0.4c0.1,0.1,0.1,0.3,0.1,0.6V203.8z"/>
	<path class="st1" d="M457,203.8c0,0.1,0,0.1-0.1,0.2s-0.1,0.1-0.2,0.1s-0.2,0.1-0.4,0.1s-0.3,0-0.5,0s-0.4,0-0.5,0
		s-0.3-0.1-0.4-0.1c-0.1,0-0.1-0.1-0.2-0.1s-0.1-0.1-0.1-0.2v-21.7l0,0l-9.5,21.8L445,204c0,0-0.1,0.1-0.2,0.1s-0.2,0.1-0.3,0.1
		s-0.3,0-0.4,0c-0.2,0-0.3,0-0.4,0c-0.1,0-0.2,0-0.3-0.1c-0.1,0-0.1-0.1-0.2-0.1l-0.1-0.1l-9-21.8l0,0v21.7c0,0.1,0,0.1-0.1,0.2
		s-0.1,0.1-0.2,0.1s-0.2,0.1-0.4,0.1c-0.1,0-0.3,0-0.6,0c-0.2,0-0.4,0-0.5,0s-0.3-0.1-0.3-0.1s-0.1-0.1-0.2-0.1c0-0.1,0-0.1,0-0.2
		v-22.5c0-0.4,0.1-0.8,0.4-0.9c0.2-0.2,0.5-0.3,0.7-0.3h1.2c0.3,0,0.6,0,0.8,0.1s0.4,0.2,0.6,0.3c0.2,0.1,0.3,0.3,0.5,0.5
		s0.2,0.4,0.3,0.6l7.9,19.1h0.1l8.3-19c0.1-0.3,0.3-0.5,0.4-0.8s0.3-0.4,0.4-0.5c0.2-0.1,0.3-0.2,0.5-0.3c0.2,0,0.4-0.1,0.6-0.1h1.4
		c0.1,0,0.2,0,0.4,0.1c0.1,0,0.2,0.1,0.3,0.2s0.2,0.2,0.3,0.4c0.1,0.1,0.1,0.3,0.1,0.6V203.8z"/>
	<path class="st1" d="M466.9,181.3c0,0.6-0.1,1-0.3,1.2s-0.6,0.3-1.2,0.3c-0.5,0-0.9-0.1-1.1-0.3s-0.3-0.6-0.3-1.2s0.1-1,0.3-1.2
		s0.6-0.3,1.2-0.3c0.5,0,0.9,0.1,1.1,0.3C466.8,180.3,466.9,180.7,466.9,181.3z M466.6,203.8c0,0.1,0,0.1-0.1,0.2s-0.1,0.1-0.2,0.1
		c-0.1,0-0.2,0.1-0.3,0.1s-0.3,0-0.5,0s-0.4,0-0.5,0s-0.3-0.1-0.3-0.1c-0.1,0-0.1-0.1-0.2-0.1s0-0.1,0-0.2V187c0-0.1,0-0.1,0-0.2
		s0.1-0.1,0.2-0.2c0.1,0,0.2-0.1,0.3-0.1s0.3,0,0.5,0s0.4,0,0.5,0s0.3,0,0.3,0.1c0.1,0,0.1,0.1,0.2,0.2s0.1,0.1,0.1,0.2V203.8z"/>
	<path class="st1" d="M494.6,203.1c0,0.2,0,0.3,0,0.4s-0.1,0.2-0.1,0.3c0,0.1-0.1,0.2-0.2,0.2c-0.1,0-0.2,0.1-0.3,0.1h-10.4
		c-0.2,0-0.5-0.1-0.7-0.3s-0.4-0.5-0.4-0.9v-22.5c0-0.1,0-0.1,0.1-0.2c0-0.1,0.1-0.1,0.2-0.1s0.2-0.1,0.4-0.1c0.1,0,0.3,0,0.5,0
		s0.4,0,0.5,0s0.3,0.1,0.3,0.1s0.1,0.1,0.2,0.1c0,0.1,0.1,0.1,0.1,0.2V202h9.2c0.1,0,0.2,0,0.3,0.1c0.1,0,0.1,0.1,0.2,0.2
		c0,0.1,0.1,0.2,0.1,0.3C494.6,202.8,494.6,202.9,494.6,203.1z"/>
	<path class="st1" d="M512.8,203.2c0,0.2,0,0.3,0,0.4s-0.1,0.2-0.1,0.3s-0.1,0.2-0.2,0.2s-0.2,0.1-0.2,0.1H501
		c-0.2,0-0.5-0.1-0.7-0.3s-0.4-0.5-0.4-0.9v-21.7c0-0.4,0.1-0.8,0.4-0.9c0.2-0.2,0.5-0.3,0.7-0.3h11.1c0.1,0,0.2,0,0.2,0.1
		c0.1,0,0.1,0.1,0.2,0.2c0,0.1,0.1,0.2,0.1,0.3s0,0.3,0,0.5s0,0.3,0,0.4s-0.1,0.2-0.1,0.3c0,0.1-0.1,0.1-0.2,0.2
		c-0.1,0-0.2,0.1-0.2,0.1h-9.9v8.4h8.5c0.1,0,0.2,0,0.3,0.1s0.1,0.1,0.2,0.2c0,0.1,0.1,0.2,0.1,0.3c0,0.1,0,0.3,0,0.5s0,0.3,0,0.4
		s-0.1,0.2-0.1,0.3s-0.1,0.1-0.2,0.2s-0.2,0.1-0.3,0.1h-8.5v9.6h10c0.1,0,0.2,0,0.2,0.1s0.1,0.1,0.2,0.2s0.1,0.2,0.1,0.3
		C512.8,202.8,512.8,203,512.8,203.2z"/>
	<path class="st1" d="M528.5,203.8c0,0.1-0.1,0.2-0.2,0.3s-0.2,0.1-0.3,0.2c-0.1,0-0.3,0.1-0.4,0.1s-0.4,0-0.6,0c-0.1,0-0.3,0-0.4,0
		c-0.1,0-0.2,0-0.3,0s-0.2,0-0.3-0.1s-0.1-0.1-0.2-0.1s-0.1-0.1-0.1-0.1s-0.1-0.1-0.1-0.2l-8.2-22.9c-0.1-0.2-0.1-0.3-0.1-0.5
		c0-0.1,0.1-0.2,0.1-0.3c0.1-0.1,0.2-0.1,0.4-0.1s0.4,0,0.7,0c0.2,0,0.4,0,0.6,0c0.1,0,0.3,0,0.3,0.1s0.1,0.1,0.2,0.1
		c0,0.1,0.1,0.1,0.1,0.2l7.5,21.1l0,0l7.2-21.1c0-0.1,0.1-0.2,0.1-0.2c0-0.1,0.1-0.1,0.2-0.1s0.2-0.1,0.4-0.1s0.4,0,0.6,0
		c0.3,0,0.5,0,0.7,0s0.3,0.1,0.4,0.1c0.1,0.1,0.1,0.1,0.1,0.3c0,0.1,0,0.3-0.1,0.4L528.5,203.8z"/>
	<path class="st1" d="M555.5,203.2c0,0.2,0,0.3,0,0.4s-0.1,0.2-0.1,0.3s-0.1,0.2-0.2,0.2s-0.2,0.1-0.2,0.1h-11.3
		c-0.2,0-0.5-0.1-0.7-0.3s-0.4-0.5-0.4-0.9v-21.7c0-0.4,0.1-0.8,0.4-0.9c0.2-0.2,0.5-0.3,0.7-0.3h11.1c0.1,0,0.2,0,0.2,0.1
		c0.1,0,0.1,0.1,0.2,0.2c0,0.1,0.1,0.2,0.1,0.3s0,0.3,0,0.5s0,0.3,0,0.4s-0.1,0.2-0.1,0.3c0,0.1-0.1,0.1-0.2,0.2
		c-0.1,0-0.2,0.1-0.2,0.1h-9.9v8.4h8.5c0.1,0,0.2,0,0.3,0.1s0.1,0.1,0.2,0.2c0,0.1,0.1,0.2,0.1,0.3c0,0.1,0,0.3,0,0.5s0,0.3,0,0.4
		s-0.1,0.2-0.1,0.3s-0.1,0.1-0.2,0.2s-0.2,0.1-0.3,0.1h-8.5v9.6h10c0.1,0,0.2,0,0.2,0.1s0.1,0.1,0.2,0.2s0.1,0.2,0.1,0.3
		C555.4,202.8,555.5,203,555.5,203.2z"/>
	<path class="st1" d="M574.7,203.1c0,0.2,0,0.3,0,0.4s-0.1,0.2-0.1,0.3c0,0.1-0.1,0.2-0.2,0.2c-0.1,0-0.2,0.1-0.3,0.1h-10.4
		c-0.2,0-0.5-0.1-0.7-0.3s-0.4-0.5-0.4-0.9v-22.5c0-0.1,0-0.1,0.1-0.2c0-0.1,0.1-0.1,0.2-0.1s0.2-0.1,0.4-0.1c0.1,0,0.3,0,0.5,0
		s0.4,0,0.5,0s0.3,0.1,0.3,0.1s0.1,0.1,0.2,0.1c0,0.1,0.1,0.1,0.1,0.2V202h9.2c0.1,0,0.2,0,0.3,0.1c0.1,0,0.1,0.1,0.2,0.2
		c0,0.1,0.1,0.2,0.1,0.3C574.7,202.8,574.7,202.9,574.7,203.1z"/>
	<path class="st1" d="M601,197.4c0,1-0.2,2-0.5,2.9s-0.8,1.6-1.5,2.2s-1.5,1.1-2.5,1.5c-1,0.3-2.2,0.5-3.5,0.5
		c-0.8,0-1.5-0.1-2.2-0.2s-1.3-0.3-1.8-0.5s-1-0.4-1.3-0.6c-0.4-0.2-0.6-0.3-0.7-0.4c-0.1-0.1-0.2-0.1-0.2-0.2s-0.1-0.2-0.1-0.3
		c0-0.1-0.1-0.2-0.1-0.4c0-0.1,0-0.3,0-0.5c0-0.4,0-0.6,0.1-0.8c0.1-0.1,0.2-0.2,0.3-0.2s0.3,0.1,0.7,0.3c0.3,0.2,0.8,0.4,1.3,0.7
		s1.2,0.5,1.9,0.7s1.5,0.3,2.4,0.3s1.7-0.1,2.3-0.4c0.7-0.2,1.2-0.6,1.7-1s0.8-0.9,1-1.5s0.3-1.2,0.3-1.9c0-0.7-0.1-1.4-0.4-2
		c-0.3-0.6-0.7-1.1-1.3-1.6s-1.2-0.8-2-1s-1.7-0.4-2.7-0.4h-2.4c-0.1,0-0.2,0-0.2-0.1c-0.1,0-0.2-0.1-0.2-0.2s-0.1-0.2-0.2-0.3
		s-0.1-0.3-0.1-0.5s0-0.3,0.1-0.4s0.1-0.2,0.1-0.3c0.1-0.1,0.1-0.1,0.2-0.2c0.1,0,0.2-0.1,0.3-0.1h2.1c0.9,0,1.6-0.1,2.3-0.4
		c0.7-0.2,1.3-0.6,1.8-1s0.9-1,1.1-1.6c0.3-0.6,0.4-1.3,0.4-2.1c0-0.6-0.1-1.1-0.3-1.6s-0.4-0.9-0.8-1.3c-0.4-0.4-0.8-0.7-1.3-0.9
		c-0.5-0.2-1.2-0.3-1.9-0.3c-0.8,0-1.4,0.1-2.1,0.3c-0.6,0.2-1.2,0.5-1.6,0.7s-0.9,0.5-1.2,0.7s-0.5,0.3-0.6,0.3s-0.1,0-0.2,0
		c-0.1,0-0.1-0.1-0.2-0.1s-0.1-0.2-0.1-0.3s0-0.3,0-0.5c0-0.1,0-0.3,0-0.4s0-0.2,0.1-0.3c0-0.1,0.1-0.2,0.1-0.3
		c0-0.1,0.1-0.2,0.2-0.3s0.3-0.3,0.7-0.5c0.3-0.2,0.8-0.4,1.3-0.6s1.1-0.4,1.7-0.5s1.3-0.2,2.1-0.2c1.1,0,2.1,0.1,2.9,0.4
		c0.8,0.3,1.5,0.7,2,1.2s0.9,1.1,1.2,1.8c0.3,0.7,0.4,1.5,0.4,2.3s-0.1,1.5-0.3,2.1s-0.5,1.3-0.9,1.8s-0.9,0.9-1.5,1.3
		c-0.6,0.3-1.2,0.6-2,0.7l0,0c0.8,0.1,1.6,0.3,2.3,0.6s1.3,0.7,1.8,1.2s0.9,1.1,1.2,1.8C600.9,195.9,601,196.6,601,197.4z"/>
	<path class="st1" d="M632.2,200.9c0,0.1,0,0.3,0,0.4s0,0.2-0.1,0.3c0,0.1-0.1,0.2-0.1,0.2s-0.1,0.2-0.2,0.3
		c-0.1,0.1-0.4,0.3-0.8,0.6c-0.4,0.3-0.9,0.5-1.5,0.8s-1.3,0.5-2.1,0.7s-1.6,0.3-2.6,0.3c-1.5,0-2.9-0.3-4.1-0.8
		c-1.2-0.5-2.3-1.3-3.1-2.3s-1.5-2.3-2-3.8s-0.7-3.2-0.7-5.1c0-2,0.2-3.7,0.7-5.3c0.5-1.6,1.2-2.9,2.1-4s2-1.9,3.2-2.5
		c1.3-0.6,2.6-0.9,4.2-0.9c0.7,0,1.4,0.1,2.1,0.2c0.7,0.1,1.3,0.3,1.9,0.5s1.1,0.5,1.5,0.7c0.5,0.3,0.8,0.5,0.9,0.7s0.3,0.3,0.3,0.4
		s0.1,0.2,0.1,0.3c0,0.1,0,0.2,0.1,0.3c0,0.1,0,0.3,0,0.4c0,0.2,0,0.3,0,0.5s0,0.2-0.1,0.3c0,0.1-0.1,0.2-0.2,0.2
		c-0.1,0-0.1,0.1-0.2,0.1c-0.2,0-0.4-0.1-0.7-0.4s-0.7-0.5-1.2-0.8s-1.1-0.6-1.9-0.8c-0.7-0.3-1.6-0.4-2.7-0.4
		c-1.1,0-2.2,0.2-3.1,0.7s-1.7,1.1-2.4,2s-1.2,2-1.6,3.2c-0.4,1.3-0.6,2.8-0.6,4.4s0.2,3,0.5,4.3c0.3,1.2,0.8,2.3,1.5,3.1
		c0.7,0.8,1.5,1.5,2.4,1.9c1,0.4,2.1,0.7,3.3,0.7c1,0,1.9-0.1,2.6-0.4c0.7-0.3,1.4-0.5,1.9-0.8s1-0.6,1.3-0.8
		c0.3-0.3,0.6-0.4,0.8-0.4c0.1,0,0.1,0,0.2,0c0,0,0.1,0.1,0.1,0.2s0.1,0.2,0.1,0.3S632.2,200.7,632.2,200.9z"/>
	<path class="st1" d="M657.3,191.9c0,1.9-0.2,3.7-0.7,5.2s-1.1,2.9-2,4s-2,1.9-3.3,2.5s-2.9,0.9-4.7,0.9s-3.3-0.3-4.6-0.8
		c-1.3-0.6-2.3-1.4-3.2-2.4s-1.4-2.3-1.8-3.8c-0.4-1.5-0.6-3.2-0.6-5.1s0.2-3.6,0.7-5.1c0.4-1.5,1.1-2.8,2-3.9s2-1.9,3.3-2.5
		s2.9-0.9,4.7-0.9c1.7,0,3.3,0.3,4.5,0.8c1.3,0.6,2.3,1.4,3.2,2.4c0.8,1,1.5,2.3,1.9,3.8C657.1,188.3,657.3,190,657.3,191.9z
		 M654.9,192.1c0-1.4-0.1-2.8-0.4-4c-0.3-1.2-0.7-2.3-1.3-3.2c-0.6-0.9-1.4-1.6-2.4-2.2c-1-0.5-2.3-0.8-3.8-0.8s-2.7,0.3-3.8,0.8
		c-1,0.6-1.8,1.3-2.5,2.2s-1.1,2-1.4,3.2c-0.3,1.2-0.4,2.5-0.4,3.9c0,1.5,0.1,2.8,0.4,4.1c0.3,1.3,0.7,2.3,1.3,3.3s1.4,1.7,2.4,2.2
		s2.3,0.8,3.8,0.8s2.8-0.3,3.8-0.8c1-0.6,1.9-1.3,2.5-2.3c0.6-0.9,1.1-2,1.4-3.3C654.8,194.8,654.9,193.4,654.9,192.1z"/>
	<path class="st1" d="M689.4,203.8c0,0.1,0,0.1-0.1,0.2s-0.1,0.1-0.2,0.1s-0.2,0.1-0.4,0.1s-0.3,0-0.5,0s-0.4,0-0.5,0
		s-0.3-0.1-0.4-0.1c-0.1,0-0.1-0.1-0.2-0.1s-0.1-0.1-0.1-0.2v-21.7l0,0l-9.5,21.8l-0.1,0.1c0,0-0.1,0.1-0.2,0.1s-0.2,0.1-0.3,0.1
		s-0.3,0-0.4,0c-0.2,0-0.3,0-0.4,0c-0.1,0-0.2,0-0.3-0.1c-0.1,0-0.1-0.1-0.2-0.1l-0.1-0.1l-9-21.8l0,0v21.7c0,0.1,0,0.1-0.1,0.2
		s-0.1,0.1-0.2,0.1s-0.2,0.1-0.4,0.1c-0.1,0-0.3,0-0.6,0c-0.2,0-0.4,0-0.5,0s-0.3-0.1-0.3-0.1s-0.1-0.1-0.2-0.1c0-0.1,0-0.1,0-0.2
		v-22.5c0-0.4,0.1-0.8,0.4-0.9c0.2-0.2,0.5-0.3,0.7-0.3h1.2c0.3,0,0.6,0,0.8,0.1s0.4,0.2,0.6,0.3c0.2,0.1,0.3,0.3,0.5,0.5
		s0.2,0.4,0.3,0.6l7.9,19.1h0.1l8.3-19c0.1-0.3,0.3-0.5,0.4-0.8s0.3-0.4,0.4-0.5c0.2-0.1,0.3-0.2,0.5-0.3c0.2,0,0.4-0.1,0.6-0.1h1.4
		c0.1,0,0.2,0,0.4,0.1c0.1,0,0.2,0.1,0.3,0.2s0.2,0.2,0.3,0.4c0.1,0.1,0.1,0.3,0.1,0.6V203.8z"/>
	<path class="st1" d="M711.8,187c0,1.1-0.2,2.1-0.6,3.1c-0.4,0.9-0.9,1.7-1.6,2.4c-0.7,0.7-1.6,1.2-2.6,1.6s-2.2,0.6-3.7,0.6h-3.1
		v9.2c0,0.1,0,0.1-0.1,0.2s-0.1,0.1-0.2,0.1s-0.2,0.1-0.3,0.1s-0.3,0-0.5,0s-0.4,0-0.5,0s-0.3-0.1-0.4-0.1s-0.1-0.1-0.2-0.1
		s-0.1-0.1-0.1-0.2v-22.5c0-0.4,0.1-0.8,0.4-0.9c0.2-0.2,0.5-0.3,0.7-0.3h4.9c0.5,0,1,0,1.4,0.1c0.5,0,1,0.1,1.6,0.3
		c0.6,0.1,1.2,0.4,1.9,0.8c0.6,0.4,1.2,0.9,1.6,1.4c0.4,0.6,0.8,1.2,1,1.9S711.8,186.2,711.8,187z M709.4,187.2c0-1-0.2-1.9-0.6-2.6
		s-0.9-1.3-1.5-1.6c-0.6-0.4-1.2-0.6-1.8-0.7s-1.2-0.1-1.8-0.1h-3.4v10.4h3.3c1.1,0,1.9-0.1,2.6-0.4c0.7-0.3,1.3-0.6,1.8-1.1
		s0.9-1,1.1-1.7C709.3,188.7,709.4,188,709.4,187.2z"/>
	<path class="st1" d="M732.8,203.4c0.1,0.2,0.1,0.3,0.1,0.5s0,0.2-0.1,0.3c-0.1,0.1-0.2,0.1-0.4,0.1s-0.4,0-0.6,0s-0.5,0-0.6,0
		c-0.2,0-0.3,0-0.4-0.1c-0.1,0-0.2-0.1-0.2-0.1c0-0.1-0.1-0.1-0.1-0.2l-2.3-6.4h-10.5l-2.2,6.4c0,0.1-0.1,0.2-0.1,0.2
		c0,0.1-0.1,0.1-0.2,0.2c-0.1,0-0.2,0.1-0.4,0.1s-0.3,0-0.6,0s-0.5,0-0.6,0c-0.2,0-0.3-0.1-0.4-0.1c-0.1-0.1-0.1-0.1-0.1-0.3
		c0-0.1,0-0.3,0.1-0.4l8.4-22.9c0-0.1,0.1-0.2,0.2-0.3c0.1-0.1,0.2-0.1,0.3-0.2c0.1,0,0.3-0.1,0.4-0.1s0.4,0,0.6,0
		c0.2,0,0.4,0,0.6,0s0.3,0,0.4,0.1c0.1,0,0.2,0.1,0.3,0.2s0.1,0.2,0.2,0.3L732.8,203.4z M722.9,182.6L722.9,182.6l-4.5,12.9h9.2
		L722.9,182.6z"/>
	<path class="st1" d="M755.9,203.1c0,0.2,0,0.4-0.1,0.6c-0.1,0.1-0.2,0.3-0.3,0.4s-0.2,0.2-0.4,0.2s-0.3,0.1-0.4,0.1h-0.5
		c-0.2,0-0.5,0-0.7-0.1s-0.4-0.2-0.6-0.3c-0.2-0.2-0.4-0.4-0.6-0.6c-0.2-0.3-0.4-0.6-0.6-1l-8.5-15c-0.4-0.7-0.8-1.5-1.3-2.3
		c-0.4-0.8-0.8-1.5-1.2-2.3l0,0c0,0.9,0,1.8,0,2.8s0,1.9,0,2.8V204c0,0.1,0,0.1-0.1,0.2s-0.1,0.1-0.2,0.1s-0.2,0.1-0.3,0.1
		s-0.3,0-0.5,0s-0.4,0-0.5,0s-0.3-0.1-0.4-0.1s-0.1-0.1-0.2-0.1s-0.1-0.1-0.1-0.2v-22.5c0-0.4,0.1-0.8,0.4-0.9
		c0.2-0.2,0.5-0.3,0.7-0.3h0.9c0.3,0,0.5,0,0.7,0.1c0.2,0,0.4,0.1,0.5,0.3c0.2,0.1,0.3,0.3,0.5,0.5s0.3,0.5,0.5,0.8l6.5,11.5
		c0.4,0.7,0.8,1.4,1.2,2.1s0.7,1.3,1.1,1.9c0.3,0.6,0.7,1.3,1,1.9s0.7,1.2,1,1.9l0,0c0-1,0-2.1,0-3.2s0-2.2,0-3.2v-14
		c0-0.1,0-0.1,0.1-0.2c0-0.1,0.1-0.1,0.2-0.2c0.1,0,0.2-0.1,0.3-0.1s0.3,0,0.5,0s0.4,0,0.5,0s0.3,0,0.4,0.1c0.1,0,0.2,0.1,0.2,0.2
		s0.1,0.1,0.1,0.2v22.2H755.9z"/>
	<path class="st1" d="M771,194.7v9.1c0,0.1,0,0.1-0.1,0.2s-0.1,0.1-0.2,0.1c-0.1,0-0.2,0.1-0.4,0.1s-0.3,0-0.5,0s-0.4,0-0.5,0
		s-0.3-0.1-0.4-0.1s-0.2-0.1-0.2-0.1s-0.1-0.1-0.1-0.2v-9.1l-6.9-13.8c-0.1-0.2-0.1-0.3-0.1-0.4s0-0.2,0.1-0.3
		c0.1-0.1,0.2-0.1,0.3-0.1c0.2,0,0.4,0,0.6,0c0.3,0,0.5,0,0.7,0s0.3,0,0.4,0.1s0.2,0.1,0.2,0.1c0,0.1,0.1,0.1,0.1,0.2l3.7,7.5
		c0.3,0.7,0.7,1.4,1,2.2c0.3,0.8,0.7,1.5,1,2.3l0,0c0.3-0.7,0.6-1.5,1-2.2c0.3-0.7,0.7-1.5,1-2.2l3.7-7.5c0-0.1,0.1-0.2,0.1-0.2
		c0-0.1,0.1-0.1,0.2-0.1c0.1,0,0.2-0.1,0.3-0.1s0.3,0,0.5,0c0.3,0,0.5,0,0.7,0s0.3,0.1,0.4,0.1c0.1,0.1,0.1,0.2,0.1,0.3
		c0,0.1-0.1,0.3-0.1,0.4L771,194.7z"/>
</g>
</svg>
