<?xml version="1.0" encoding="utf-8"?>
<!-- Generator: Adobe Illustrator 19.0.0, SVG Export Plug-In . SVG Version: 6.00 Build 0)  -->
<svg version="1.1" id="Isolation_Mode" xmlns="http://www.w3.org/2000/svg" xmlns:xlink="http://www.w3.org/1999/xlink" x="0px"
	 y="0px" viewBox="102 309.9 799 222" style="enable-background:new 102 309.9 799 222;" xml:space="preserve">
<style type="text/css">
	.st0{fill:#005495;stroke:#FFFFFF;stroke-miterlimit:10;}
	.st1{fill:#ABE0F9;stroke:#FFFFFF;stroke-miterlimit:10;}
	.st2{fill:#A6A8AB;stroke:#FFFFFF;stroke-miterlimit:10;}
</style>
<g>
	<path class="st0" d="M382.4,427v-80.4c0-2.5-0.4-4-1.1-4.7c-0.8-0.7-2.3-1.1-4.6-1.1h-67.6c-2.1,0-3.5,0.4-4.2,1.2
		c-0.7,0.8-1.1,2.3-1.1,4.6v90.3c0,3.3,0.3,5.3,1,5.9c0.6,0.6,2.1,0.9,4.2,0.9h27c2.1,0,3.7-0.2,4.9-0.7c1.2-0.5,2.4-1.2,3.7-2.3
		l5.6-4.8c1.8-1.6,3.7-2.7,5.5-3.3c1.8-0.7,4.4-1,7.9-1h14.3c1.8,0,3-0.3,3.6-0.9C382.1,429.9,382.4,428.8,382.4,427L382.4,427z
		 M399.8,449.5c0,2.7-1,5-2.9,6.8s-4.3,2.7-7.2,2.7H387c-2.1,0-3.5,0.4-4.2,1.2c-0.7,0.7-1.1,2.3-1.1,4.6v1.9c0,2.3-0.4,3.9-1.1,4.6
		c-0.8,0.8-2.2,1.2-4.2,1.2h-18.6c-2,0-3.4-0.4-4.1-1.2c-0.7-0.8-1.1-2.3-1.1-4.6v-1.9c0-2.3-0.3-3.9-1.1-4.6
		c-0.7-0.8-2.1-1.2-4.2-1.2h-50.4c-2.9,0-5.3-0.9-7.3-2.7c-1.9-1.8-2.9-4.1-2.9-6.8V334.7c0-2.2,0.8-4.1,2.5-5.7s3.7-2.4,6.1-2.4
		h95.8c2.4,0,4.5,0.8,6.1,2.3s2.4,3.5,2.4,5.8v114.8H399.8z M481.9,444.6c1,0,1.7-0.2,2-0.7c0.4-0.5,0.6-1.3,0.6-2.7v-69.5
		c0-1.2,0.2-2.2,0.8-2.8c0.5-0.7,1.2-1,2.1-1h10.9c0.9,0,1.6,0.3,2.1,1c0.5,0.6,0.8,1.6,0.8,2.8v82.5c0,1.6-0.5,2.8-1.6,3.6
		c-1.1,0.8-2.7,1.2-4.8,1.2H423c-2.2,0-3.8-0.4-4.8-1.2c-1-0.8-1.6-2-1.6-3.7v-82.5c0-1.2,0.2-2.2,0.7-2.8c0.5-0.7,1.1-1,2-1h12.3
		c1,0,1.7,0.3,2.2,0.9s0.7,1.5,0.7,2.9v28.8c0,1.2,0.1,2.1,0.2,2.9c0.2,0.8,0.5,1.5,0.9,2.1l5.1,8.2c1.3,2.2,2.3,4.5,2.9,6.7
		s0.9,5.1,0.9,8.7v1.4V442c0,0.8,0.2,1.4,0.5,1.8s0.8,0.6,1.5,0.6h35.4V444.6z M546.3,442.9h31.2c1.6,0,2.6-0.2,3-0.6
		s0.7-1.5,0.7-3.1v-22.3c0-1.9-0.2-3.2-0.7-3.7s-1.4-0.8-3-0.8h-31.2c-1.4,0-2.3,0.2-2.7,0.6c-0.4,0.3-0.7,1.3-0.7,3v0.9v22.3
		c0,1.3,0.2,2.3,0.8,2.9C544.2,442.6,545.1,442.9,546.3,442.9L546.3,442.9z M524.3,459c-2.5,0-4.4-0.8-6-2.5
		c-1.5-1.7-2.3-3.8-2.3-6.5v-45c0-2.2,0.9-4.1,2.6-5.6c1.8-1.5,3.9-2.3,6.6-2.3h53.1c1.3,0,2.1-0.2,2.3-0.6c0.3-0.3,0.4-1.1,0.4-2.3
		v-8.6c0-1-0.2-1.8-0.8-2.2c-0.5-0.4-1.5-0.6-2.9-0.6h-55.9c-2.3,0-3.8-0.3-4.4-0.9c-0.7-0.6-1-1.6-1-3.1v-6.2c0-2.1,0.3-3.4,1.1-4
		c0.7-0.6,2.1-0.9,4.3-0.9h67.2c2.7,0,4.7,0.7,6.1,2.1c1.3,1.4,2,3.4,2,6.2v63c0,1.5,0.3,2.6,1,3.3c0.7,0.7,1.7,1.1,2.9,1.1h3.2
		c1.3,0,2.3,0.4,2.9,1.1c0.7,0.7,1,1.8,1,3.2v6.2c0,1.5-0.4,2.6-1.3,3.5c-0.8,0.9-2,1.3-3.4,1.3h-78.7V459z M643.8,382.1
		c-1.3,0-2.1,0.2-2.5,0.5c-0.5,0.3-0.7,1.1-0.7,2.2v13.1c0,1.3,0.2,2.1,0.6,2.5c0.3,0.4,1,0.6,2,0.6h35.9c1.2,0,2-0.2,2.4-0.6
		c0.5-0.4,0.7-1.2,0.7-2.3v-12.2c0-1.3-0.2-2.3-0.7-2.9s-1.2-0.9-2.4-0.9L643.8,382.1L643.8,382.1z M622,459c-1.9,0-3.7-0.8-5.4-2.4
		s-2.5-3.3-2.5-5.1v-76.7c0-2.1,0.8-3.7,2.4-5c1.6-1.2,3.7-1.9,6.4-1.9h67.7c2.3,0,4.3,0.7,6,2.1s2.5,3,2.5,4.8V409
		c0,1.8-0.6,3.2-1.8,4.3c-1.2,1.1-2.8,1.6-4.9,1.6h-48c-1.5,0-2.5,0.2-3,0.8c-0.5,0.5-0.8,1.7-0.8,3.5v20.6c0,1.9,0.1,3.1,0.4,3.5
		c0.2,0.4,0.9,0.7,2,0.7h1.9h34.7c1.2,0,1.9-0.2,2.2-0.6c0.3-0.3,0.4-1.1,0.4-2.3v-7.7c0-0.8,0.2-1.5,0.6-1.8
		c0.4-0.4,1.3-0.6,2.6-0.6h10.2c1.4,0,2.3,0.3,2.8,0.8c0.5,0.6,0.7,1.6,0.7,3.1v16.7c0,2.9-0.5,4.8-1.6,5.9s-3,1.6-5.7,1.6H622V459z
		 M713.2,452.2v-76.4c0-2.3,0.8-4.2,2.4-5.7c1.6-1.5,3.7-2.2,6.3-2.2h52.7c2.2,0,4,0.7,5.5,2s2.2,3,2.2,5.1v14.6
		c0,2.4-0.4,4-1.1,4.8c-0.8,0.8-2.1,1.2-4,1.2h-7.7c-1.7,0-2.9-0.3-3.6-1c-0.7-0.7-1.1-1.8-1.1-3.3v-5.9c0-1.5-0.2-2.5-0.6-2.8
		c-0.3-0.4-1.2-0.6-2.5-0.6h-28.1c-1.2,0.1-2,0.3-2.5,0.8c-0.4,0.5-0.7,1.6-0.7,3.3v9.2c0,1.9,0.2,3.6,0.5,5.1s0.9,2.8,1.6,4.1
		l5.4,10.3c0.8,1.7,1.5,3.2,1.9,4.7s0.6,3.2,0.6,5v1.2v27.1c0,2.1-0.5,3.6-1.5,4.6s-2.6,1.5-4.7,1.5h-14.6c-1.8,0-3.3-0.7-4.6-1.9
		C713.9,455.8,713.2,454.2,713.2,452.2L713.2,452.2z M821.8,382.1c-1.3,0-2.1,0.2-2.5,0.5c-0.5,0.3-0.7,1.1-0.7,2.2v13.1
		c0,1.3,0.2,2.1,0.6,2.5c0.3,0.4,1,0.6,2,0.6h35.9c1.2,0,2-0.2,2.4-0.6c0.5-0.4,0.7-1.2,0.7-2.3v-12.2c0-1.3-0.2-2.3-0.7-2.9
		s-1.2-0.9-2.4-0.9L821.8,382.1L821.8,382.1z M800,459c-1.9,0-3.7-0.8-5.4-2.4s-2.5-3.3-2.5-5.1v-76.7c0-2.1,0.8-3.7,2.4-5
		c1.6-1.2,3.7-1.9,6.4-1.9h67.7c2.3,0,4.3,0.7,6,2.1s2.5,3,2.5,4.8V409c0,1.8-0.6,3.2-1.8,4.3c-1.2,1.1-2.8,1.6-4.9,1.6h-48
		c-1.5,0-2.5,0.2-3,0.8c-0.5,0.5-0.8,1.7-0.8,3.5v20.6c0,1.9,0.1,3.1,0.4,3.5c0.2,0.4,0.9,0.7,2,0.7h1.9h34.7c1.2,0,1.9-0.2,2.2-0.6
		c0.3-0.3,0.4-1.1,0.4-2.3v-7.7c0-0.8,0.2-1.5,0.6-1.8c0.4-0.4,1.3-0.6,2.6-0.6h10.2c1.4,0,2.3,0.3,2.8,0.8c0.5,0.6,0.7,1.6,0.7,3.1
		v16.7c0,2.9-0.5,4.8-1.6,5.9s-3,1.6-5.7,1.6H800V459z"/>
	<path class="st1" d="M195.7,356.2c27.7,0.8,49.6,23.9,48.9,51.7c-0.3,11-4.1,21-10.3,29.1l-41-19.9l-31.5,27.6
		c-11.2-9.5-18.1-23.8-17.7-39.7C144.9,377.3,168,355.4,195.7,356.2L195.7,356.2z M221.4,448.8l-24.5-12.7l-10.6,20
		c2.2,0.4,4.4,0.6,6.7,0.6C203.4,457,213.2,454,221.4,448.8z"/>
	<path class="st0" d="M176.9,462l-13.5-11.4l30.8-27l81,39.2h-14.4l-66.2-34.1L176.9,462L176.9,462z M181.6,325.7
		c-36.8-1-67.4,28-68.4,64.7c-0.9,31.2,19.8,57.9,48.5,66l-2.6-2.2C144,443,134.4,424.9,135,404.8c0.9-32.8,28.2-58.7,61-57.8
		c19.8,0.6,37.1,10.7,47.5,26C235.4,346.3,211,326.6,181.6,325.7z"/>
	<g>
		<path class="st2" d="M459.7,513.5c0.1,0.2,0.1,0.3,0.1,0.5s-0.1,0.2-0.1,0.3c-0.1,0.1-0.2,0.1-0.4,0.1c-0.2,0-0.4,0-0.6,0
			s-0.5,0-0.6,0c-0.2,0-0.3,0-0.4-0.1c-0.1,0-0.2-0.1-0.2-0.1c0-0.1-0.1-0.1-0.1-0.2l-2.3-6.4h-10.5l-2.2,6.4c0,0.1-0.1,0.2-0.1,0.2
			s-0.1,0.1-0.2,0.2c-0.1,0-0.2,0.1-0.4,0.1c-0.2,0-0.4,0-0.6,0c-0.3,0-0.5,0-0.6,0s-0.3-0.1-0.4-0.1c-0.1-0.1-0.1-0.1-0.1-0.3
			c0-0.1,0-0.3,0.1-0.4l8.4-22.9c0-0.1,0.1-0.2,0.2-0.3c0.1-0.1,0.2-0.1,0.3-0.2c0.1,0,0.3-0.1,0.4-0.1c0.2,0,0.4,0,0.6,0
			s0.4,0,0.6,0s0.3,0,0.4,0.1s0.2,0.1,0.3,0.2c0.1,0.1,0.1,0.2,0.2,0.3L459.7,513.5z M449.7,492.7L449.7,492.7l-4.5,12.9h9.2
			L449.7,492.7z"/>
		<path class="st2" d="M489.8,511c0,0.1,0,0.3,0,0.4s0,0.2-0.1,0.3c0,0.1-0.1,0.2-0.1,0.2s-0.1,0.2-0.2,0.3
			c-0.1,0.1-0.4,0.3-0.8,0.6c-0.4,0.3-0.9,0.5-1.5,0.8s-1.3,0.5-2.1,0.7s-1.6,0.3-2.6,0.3c-1.5,0-2.9-0.3-4.1-0.8
			c-1.2-0.5-2.3-1.3-3.1-2.3c-0.8-1-1.5-2.3-2-3.8s-0.7-3.2-0.7-5.1c0-2,0.2-3.7,0.7-5.3c0.5-1.6,1.2-2.9,2.1-4s2-1.9,3.2-2.5
			c1.3-0.6,2.6-0.9,4.2-0.9c0.7,0,1.4,0.1,2.1,0.2c0.7,0.1,1.3,0.3,1.9,0.5s1.1,0.5,1.5,0.7c0.5,0.3,0.8,0.5,0.9,0.7
			s0.3,0.3,0.3,0.4s0.1,0.2,0.1,0.3c0,0.1,0,0.2,0.1,0.3c0,0.1,0,0.3,0,0.4c0,0.2,0,0.3,0,0.5s0,0.2-0.1,0.3c0,0.1-0.1,0.2-0.2,0.2
			c-0.1,0-0.1,0.1-0.2,0.1c-0.2,0-0.4-0.1-0.7-0.4s-0.7-0.5-1.2-0.8s-1.1-0.6-1.9-0.8c-0.7-0.3-1.6-0.4-2.7-0.4
			c-1.1,0-2.2,0.2-3.1,0.7s-1.7,1.1-2.4,2s-1.2,2-1.6,3.2c-0.4,1.3-0.6,2.8-0.6,4.4s0.2,3,0.5,4.3c0.3,1.2,0.8,2.3,1.5,3.1
			c0.7,0.8,1.5,1.5,2.4,1.9c1,0.4,2.1,0.7,3.3,0.7c1,0,1.9-0.1,2.6-0.4c0.7-0.3,1.4-0.5,1.9-0.8s1-0.6,1.3-0.8
			c0.3-0.3,0.6-0.4,0.8-0.4c0.1,0,0.1,0,0.2,0c0,0,0.1,0.1,0.1,0.2s0.1,0.2,0.1,0.3S489.8,510.8,489.8,511z"/>
		<path class="st2" d="M521,513.9c0,0.1,0,0.1-0.1,0.2c-0.1,0.1-0.1,0.1-0.2,0.1s-0.2,0.1-0.4,0.1s-0.3,0-0.5,0s-0.4,0-0.5,0
			s-0.3-0.1-0.4-0.1c-0.1,0-0.1-0.1-0.2-0.1s-0.1-0.1-0.1-0.2v-21.7l0,0l-9.5,21.8l-0.1,0.1c0,0-0.1,0.1-0.2,0.1s-0.2,0.1-0.3,0.1
			s-0.3,0-0.4,0c-0.2,0-0.3,0-0.4,0c-0.1,0-0.2,0-0.3-0.1c-0.1,0-0.1-0.1-0.2-0.1l-0.1-0.1l-9-21.8l0,0v21.7c0,0.1,0,0.1-0.1,0.2
			c-0.1,0.1-0.1,0.1-0.2,0.1s-0.2,0.1-0.4,0.1c-0.1,0-0.3,0-0.6,0c-0.2,0-0.4,0-0.5,0s-0.3-0.1-0.3-0.1s-0.1-0.1-0.2-0.1
			c0-0.1,0-0.1,0-0.2v-22.5c0-0.4,0.1-0.8,0.4-0.9c0.2-0.2,0.5-0.3,0.7-0.3h1.2c0.3,0,0.6,0,0.8,0.1s0.4,0.2,0.6,0.3
			c0.2,0.1,0.3,0.3,0.5,0.5s0.2,0.4,0.3,0.6l7.9,19.1h0.1l8.3-19c0.1-0.3,0.3-0.5,0.4-0.8s0.3-0.4,0.4-0.5c0.2-0.1,0.3-0.2,0.5-0.3
			c0.2,0,0.4-0.1,0.6-0.1h1.4c0.1,0,0.2,0,0.4,0.1c0.1,0,0.2,0.1,0.3,0.2s0.2,0.2,0.3,0.4c0.1,0.1,0.1,0.3,0.1,0.6V513.9z"/>
		<path class="st2" d="M554.6,513.9c0,0.1,0,0.1-0.1,0.2c-0.1,0.1-0.1,0.1-0.2,0.1s-0.2,0.1-0.4,0.1s-0.3,0-0.5,0s-0.4,0-0.5,0
			s-0.3-0.1-0.4-0.1c-0.1,0-0.1-0.1-0.2-0.1s-0.1-0.1-0.1-0.2v-21.7l0,0l-9.5,21.8l-0.1,0.1c0,0-0.1,0.1-0.2,0.1s-0.2,0.1-0.3,0.1
			s-0.3,0-0.4,0c-0.2,0-0.3,0-0.4,0c-0.1,0-0.2,0-0.3-0.1c-0.1,0-0.1-0.1-0.2-0.1l-0.1-0.1l-9-21.8l0,0v21.7c0,0.1,0,0.1-0.1,0.2
			c-0.1,0.1-0.1,0.1-0.2,0.1s-0.2,0.1-0.4,0.1c-0.1,0-0.3,0-0.6,0c-0.2,0-0.4,0-0.5,0s-0.3-0.1-0.3-0.1s-0.1-0.1-0.2-0.1
			c0-0.1,0-0.1,0-0.2v-22.5c0-0.4,0.1-0.8,0.4-0.9c0.2-0.2,0.5-0.3,0.7-0.3h1.2c0.3,0,0.6,0,0.8,0.1s0.4,0.2,0.6,0.3
			c0.2,0.1,0.3,0.3,0.5,0.5s0.2,0.4,0.3,0.6l7.9,19.1h0.1l8.3-19c0.1-0.3,0.3-0.5,0.4-0.8s0.3-0.4,0.4-0.5c0.2-0.1,0.3-0.2,0.5-0.3
			c0.2,0,0.4-0.1,0.6-0.1h1.4c0.1,0,0.2,0,0.4,0.1c0.1,0,0.2,0.1,0.3,0.2s0.2,0.2,0.3,0.4c0.1,0.1,0.1,0.3,0.1,0.6V513.9z"/>
		<path class="st2" d="M564.5,491.4c0,0.6-0.1,1-0.3,1.2s-0.6,0.3-1.2,0.3c-0.5,0-0.9-0.1-1.1-0.3s-0.3-0.6-0.3-1.2s0.1-1,0.3-1.2
			s0.6-0.3,1.2-0.3c0.5,0,0.9,0.1,1.1,0.3C564.4,490.4,564.5,490.8,564.5,491.4z M564.2,513.9c0,0.1,0,0.1-0.1,0.2
			c-0.1,0.1-0.1,0.1-0.2,0.1c-0.1,0-0.2,0.1-0.3,0.1s-0.3,0-0.5,0s-0.4,0-0.5,0s-0.3-0.1-0.3-0.1c-0.1,0-0.1-0.1-0.2-0.1
			s0-0.1,0-0.2v-16.8c0-0.1,0-0.1,0-0.2s0.1-0.1,0.2-0.2c0.1,0,0.2-0.1,0.3-0.1s0.3,0,0.5,0s0.4,0,0.5,0s0.3,0,0.3,0.1
			c0.1,0,0.1,0.1,0.2,0.2s0.1,0.1,0.1,0.2V513.9z"/>
		<path class="st2" d="M592.2,513.2c0,0.2,0,0.3,0,0.4c0,0.1-0.1,0.2-0.1,0.3c0,0.1-0.1,0.2-0.2,0.2c-0.1,0-0.2,0.1-0.3,0.1h-10.4
			c-0.2,0-0.5-0.1-0.7-0.3c-0.2-0.2-0.4-0.5-0.4-0.9v-22.5c0-0.1,0-0.1,0.1-0.2c0-0.1,0.1-0.1,0.2-0.1s0.2-0.1,0.4-0.1
			c0.1,0,0.3,0,0.5,0s0.4,0,0.5,0s0.3,0.1,0.3,0.1s0.1,0.1,0.2,0.1c0,0.1,0.1,0.1,0.1,0.2v21.6h9.2c0.1,0,0.2,0,0.3,0.1
			c0.1,0,0.1,0.1,0.2,0.2c0,0.1,0.1,0.2,0.1,0.3C592.2,512.9,592.2,513,592.2,513.2z"/>
		<path class="st2" d="M610.4,513.3c0,0.2,0,0.3,0,0.4c0,0.1-0.1,0.2-0.1,0.3s-0.1,0.2-0.2,0.2s-0.2,0.1-0.2,0.1h-11.3
			c-0.2,0-0.5-0.1-0.7-0.3c-0.2-0.2-0.4-0.5-0.4-0.9v-21.7c0-0.4,0.1-0.8,0.4-0.9c0.2-0.2,0.5-0.3,0.7-0.3h11.1c0.1,0,0.2,0,0.2,0.1
			c0.1,0,0.1,0.1,0.2,0.2c0,0.1,0.1,0.2,0.1,0.3s0,0.3,0,0.5s0,0.3,0,0.4s-0.1,0.2-0.1,0.3c0,0.1-0.1,0.1-0.2,0.2
			c-0.1,0-0.2,0.1-0.2,0.1h-9.9v8.4h8.5c0.1,0,0.2,0,0.3,0.1s0.1,0.1,0.2,0.2c0,0.1,0.1,0.2,0.1,0.3c0,0.1,0,0.3,0,0.5s0,0.3,0,0.4
			s-0.1,0.2-0.1,0.3s-0.1,0.1-0.2,0.2s-0.2,0.1-0.3,0.1h-8.5v9.6h10c0.1,0,0.2,0,0.2,0.1c0,0.1,0.1,0.1,0.2,0.2
			c0.1,0.1,0.1,0.2,0.1,0.3C610.4,512.9,610.4,513.1,610.4,513.3z"/>
		<path class="st2" d="M626.1,513.9c0,0.1-0.1,0.2-0.2,0.3s-0.2,0.1-0.3,0.2c-0.1,0-0.3,0.1-0.4,0.1s-0.4,0-0.6,0
			c-0.1,0-0.3,0-0.4,0c-0.1,0-0.2,0-0.3,0s-0.2,0-0.3-0.1c-0.1-0.1-0.1-0.1-0.2-0.1s-0.1-0.1-0.1-0.1s-0.1-0.1-0.1-0.2l-8.2-22.9
			c-0.1-0.2-0.1-0.3-0.1-0.5c0-0.1,0.1-0.2,0.1-0.3c0.1-0.1,0.2-0.1,0.4-0.1s0.4,0,0.7,0c0.2,0,0.4,0,0.6,0c0.1,0,0.3,0,0.3,0.1
			s0.1,0.1,0.2,0.1c0,0.1,0.1,0.1,0.1,0.2l7.5,21.1l0,0l7.2-21.1c0-0.1,0.1-0.2,0.1-0.2c0-0.1,0.1-0.1,0.2-0.1s0.2-0.1,0.4-0.1
			s0.4,0,0.6,0c0.3,0,0.5,0,0.7,0s0.3,0.1,0.4,0.1c0.1,0.1,0.1,0.1,0.1,0.3c0,0.1,0,0.3-0.1,0.4L626.1,513.9z"/>
		<path class="st2" d="M653.1,513.3c0,0.2,0,0.3,0,0.4c0,0.1-0.1,0.2-0.1,0.3s-0.1,0.2-0.2,0.2s-0.2,0.1-0.2,0.1h-11.3
			c-0.2,0-0.5-0.1-0.7-0.3c-0.2-0.2-0.4-0.5-0.4-0.9v-21.7c0-0.4,0.1-0.8,0.4-0.9c0.2-0.2,0.5-0.3,0.7-0.3h11.1c0.1,0,0.2,0,0.2,0.1
			c0.1,0,0.1,0.1,0.2,0.2c0,0.1,0.1,0.2,0.1,0.3s0,0.3,0,0.5s0,0.3,0,0.4s-0.1,0.2-0.1,0.3c0,0.1-0.1,0.1-0.2,0.2
			c-0.1,0-0.2,0.1-0.2,0.1h-9.9v8.4h8.5c0.1,0,0.2,0,0.3,0.1s0.1,0.1,0.2,0.2c0,0.1,0.1,0.2,0.1,0.3c0,0.1,0,0.3,0,0.5s0,0.3,0,0.4
			s-0.1,0.2-0.1,0.3s-0.1,0.1-0.2,0.2s-0.2,0.1-0.3,0.1h-8.5v9.6h10c0.1,0,0.2,0,0.2,0.1c0,0.1,0.1,0.1,0.2,0.2
			c0.1,0.1,0.1,0.2,0.1,0.3C653,512.9,653.1,513.1,653.1,513.3z"/>
		<path class="st2" d="M672.3,513.2c0,0.2,0,0.3,0,0.4c0,0.1-0.1,0.2-0.1,0.3c0,0.1-0.1,0.2-0.2,0.2c-0.1,0-0.2,0.1-0.3,0.1h-10.4
			c-0.2,0-0.5-0.1-0.7-0.3c-0.2-0.2-0.4-0.5-0.4-0.9v-22.5c0-0.1,0-0.1,0.1-0.2c0-0.1,0.1-0.1,0.2-0.1s0.2-0.1,0.4-0.1
			c0.1,0,0.3,0,0.5,0s0.4,0,0.5,0s0.3,0.1,0.3,0.1s0.1,0.1,0.2,0.1c0,0.1,0.1,0.1,0.1,0.2v21.6h9.2c0.1,0,0.2,0,0.3,0.1
			c0.1,0,0.1,0.1,0.2,0.2c0,0.1,0.1,0.2,0.1,0.3C672.3,512.9,672.3,513,672.3,513.2z"/>
		<path class="st2" d="M698.6,507.5c0,1-0.2,2-0.5,2.9s-0.8,1.6-1.5,2.2c-0.7,0.6-1.5,1.1-2.5,1.5c-1,0.3-2.2,0.5-3.5,0.5
			c-0.8,0-1.5-0.1-2.2-0.2c-0.7-0.1-1.3-0.3-1.8-0.5s-1-0.4-1.3-0.6c-0.4-0.2-0.6-0.3-0.7-0.4c-0.1-0.1-0.2-0.1-0.2-0.2
			c0-0.1-0.1-0.2-0.1-0.3s-0.1-0.2-0.1-0.4c0-0.1,0-0.3,0-0.5c0-0.4,0-0.6,0.1-0.8c0.1-0.1,0.2-0.2,0.3-0.2s0.3,0.1,0.7,0.3
			c0.3,0.2,0.8,0.4,1.3,0.7s1.2,0.5,1.9,0.7s1.5,0.3,2.4,0.3s1.7-0.1,2.3-0.4c0.7-0.2,1.2-0.6,1.7-1s0.8-0.9,1-1.5s0.3-1.2,0.3-1.9
			c0-0.7-0.1-1.4-0.4-2c-0.3-0.6-0.7-1.1-1.3-1.6s-1.2-0.8-2-1s-1.7-0.4-2.7-0.4h-2.4c-0.1,0-0.2,0-0.2-0.1c-0.1,0-0.2-0.1-0.2-0.2
			s-0.1-0.2-0.2-0.3s-0.1-0.3-0.1-0.5s0-0.3,0.1-0.4s0.1-0.2,0.1-0.3c0.1-0.1,0.1-0.1,0.2-0.2c0.1,0,0.2-0.1,0.3-0.1h2.1
			c0.9,0,1.6-0.1,2.3-0.4c0.7-0.2,1.3-0.6,1.8-1s0.9-1,1.1-1.6c0.3-0.6,0.4-1.3,0.4-2.1c0-0.6-0.1-1.1-0.3-1.6s-0.4-0.9-0.8-1.3
			c-0.4-0.4-0.8-0.7-1.3-0.9c-0.5-0.2-1.2-0.3-1.9-0.3c-0.8,0-1.4,0.1-2.1,0.3c-0.6,0.2-1.2,0.5-1.6,0.7s-0.9,0.5-1.2,0.7
			s-0.5,0.3-0.6,0.3s-0.1,0-0.2,0c-0.1,0-0.1-0.1-0.2-0.1s-0.1-0.2-0.1-0.3s0-0.3,0-0.5c0-0.1,0-0.3,0-0.4s0-0.2,0.1-0.3
			c0-0.1,0.1-0.2,0.1-0.3c0-0.1,0.1-0.2,0.2-0.3s0.3-0.3,0.7-0.5c0.3-0.2,0.8-0.4,1.3-0.6s1.1-0.4,1.7-0.5s1.3-0.2,2.1-0.2
			c1.1,0,2.1,0.1,2.9,0.4c0.8,0.3,1.5,0.7,2,1.2s0.9,1.1,1.2,1.8c0.3,0.7,0.4,1.5,0.4,2.3s-0.1,1.5-0.3,2.1s-0.5,1.3-0.9,1.8
			s-0.9,0.9-1.5,1.3c-0.6,0.3-1.2,0.6-2,0.7l0,0c0.8,0.1,1.6,0.3,2.3,0.6s1.3,0.7,1.8,1.2s0.9,1.1,1.2,1.8
			C698.5,506,698.6,506.7,698.6,507.5z"/>
		<path class="st2" d="M729.8,511c0,0.1,0,0.3,0,0.4s0,0.2-0.1,0.3c0,0.1-0.1,0.2-0.1,0.2s-0.1,0.2-0.2,0.3
			c-0.1,0.1-0.4,0.3-0.8,0.6c-0.4,0.3-0.9,0.5-1.5,0.8s-1.3,0.5-2.1,0.7s-1.6,0.3-2.6,0.3c-1.5,0-2.9-0.3-4.1-0.8
			c-1.2-0.5-2.3-1.3-3.1-2.3c-0.8-1-1.5-2.3-2-3.8s-0.7-3.2-0.7-5.1c0-2,0.2-3.7,0.7-5.3c0.5-1.6,1.2-2.9,2.1-4s2-1.9,3.2-2.5
			c1.3-0.6,2.6-0.9,4.2-0.9c0.7,0,1.4,0.1,2.1,0.2c0.7,0.1,1.3,0.3,1.9,0.5s1.1,0.5,1.5,0.7c0.5,0.3,0.8,0.5,0.9,0.7
			s0.3,0.3,0.3,0.4s0.1,0.2,0.1,0.3c0,0.1,0,0.2,0.1,0.3c0,0.1,0,0.3,0,0.4c0,0.2,0,0.3,0,0.5s0,0.2-0.1,0.3c0,0.1-0.1,0.2-0.2,0.2
			c-0.1,0-0.1,0.1-0.2,0.1c-0.2,0-0.4-0.1-0.7-0.4s-0.7-0.5-1.2-0.8s-1.1-0.6-1.9-0.8c-0.7-0.3-1.6-0.4-2.7-0.4
			c-1.1,0-2.2,0.2-3.1,0.7s-1.7,1.1-2.4,2s-1.2,2-1.6,3.2c-0.4,1.3-0.6,2.8-0.6,4.4s0.2,3,0.5,4.3c0.3,1.2,0.8,2.3,1.5,3.1
			c0.7,0.8,1.5,1.5,2.4,1.9c1,0.4,2.1,0.7,3.3,0.7c1,0,1.9-0.1,2.6-0.4c0.7-0.3,1.4-0.5,1.9-0.8s1-0.6,1.3-0.8
			c0.3-0.3,0.6-0.4,0.8-0.4c0.1,0,0.1,0,0.2,0c0,0,0.1,0.1,0.1,0.2s0.1,0.2,0.1,0.3S729.8,510.8,729.8,511z"/>
		<path class="st2" d="M754.9,502c0,1.9-0.2,3.7-0.7,5.2s-1.1,2.9-2,4s-2,1.9-3.3,2.5c-1.3,0.6-2.9,0.9-4.7,0.9s-3.3-0.3-4.6-0.8
			c-1.3-0.6-2.3-1.4-3.2-2.4c-0.9-1-1.4-2.3-1.8-3.8c-0.4-1.5-0.6-3.2-0.6-5.1s0.2-3.6,0.7-5.1c0.4-1.5,1.1-2.8,2-3.9s2-1.9,3.3-2.5
			s2.9-0.9,4.7-0.9c1.7,0,3.3,0.3,4.5,0.8c1.3,0.6,2.3,1.4,3.2,2.4c0.8,1,1.5,2.3,1.9,3.8C754.7,498.4,754.9,500.1,754.9,502z
			 M752.5,502.2c0-1.4-0.1-2.8-0.4-4c-0.3-1.2-0.7-2.3-1.3-3.2c-0.6-0.9-1.4-1.6-2.4-2.2c-1-0.5-2.3-0.8-3.8-0.8s-2.7,0.3-3.8,0.8
			c-1,0.6-1.8,1.3-2.5,2.2s-1.1,2-1.4,3.2c-0.3,1.2-0.4,2.5-0.4,3.9c0,1.5,0.1,2.8,0.4,4.1c0.3,1.3,0.7,2.3,1.3,3.3s1.4,1.7,2.4,2.2
			c1,0.5,2.3,0.8,3.8,0.8s2.8-0.3,3.8-0.8c1-0.6,1.9-1.3,2.5-2.3c0.6-0.9,1.1-2,1.4-3.3C752.4,504.9,752.5,503.5,752.5,502.2z"/>
		<path class="st2" d="M787,513.9c0,0.1,0,0.1-0.1,0.2c-0.1,0.1-0.1,0.1-0.2,0.1s-0.2,0.1-0.4,0.1s-0.3,0-0.5,0s-0.4,0-0.5,0
			s-0.3-0.1-0.4-0.1c-0.1,0-0.1-0.1-0.2-0.1s-0.1-0.1-0.1-0.2v-21.7l0,0l-9.5,21.8l-0.1,0.1c0,0-0.1,0.1-0.2,0.1s-0.2,0.1-0.3,0.1
			s-0.3,0-0.4,0c-0.2,0-0.3,0-0.4,0c-0.1,0-0.2,0-0.3-0.1c-0.1,0-0.1-0.1-0.2-0.1l-0.1-0.1l-9-21.8l0,0v21.7c0,0.1,0,0.1-0.1,0.2
			c-0.1,0.1-0.1,0.1-0.2,0.1s-0.2,0.1-0.4,0.1c-0.1,0-0.3,0-0.6,0c-0.2,0-0.4,0-0.5,0s-0.3-0.1-0.3-0.1s-0.1-0.1-0.2-0.1
			c0-0.1,0-0.1,0-0.2v-22.5c0-0.4,0.1-0.8,0.4-0.9c0.2-0.2,0.5-0.3,0.7-0.3h1.2c0.3,0,0.6,0,0.8,0.1s0.4,0.2,0.6,0.3
			c0.2,0.1,0.3,0.3,0.5,0.5s0.2,0.4,0.3,0.6l7.9,19.1h0.1l8.3-19c0.1-0.3,0.3-0.5,0.4-0.8s0.3-0.4,0.4-0.5c0.2-0.1,0.3-0.2,0.5-0.3
			c0.2,0,0.4-0.1,0.6-0.1h1.4c0.1,0,0.2,0,0.4,0.1c0.1,0,0.2,0.1,0.3,0.2s0.2,0.2,0.3,0.4c0.1,0.1,0.1,0.3,0.1,0.6V513.9z"/>
		<path class="st2" d="M809.4,497.1c0,1.1-0.2,2.1-0.6,3.1c-0.4,0.9-0.9,1.7-1.6,2.4c-0.7,0.7-1.6,1.2-2.6,1.6s-2.2,0.6-3.7,0.6
			h-3.1v9.2c0,0.1,0,0.1-0.1,0.2c-0.1,0.1-0.1,0.1-0.2,0.1s-0.2,0.1-0.3,0.1s-0.3,0-0.5,0s-0.4,0-0.5,0s-0.3-0.1-0.4-0.1
			s-0.1-0.1-0.2-0.1s-0.1-0.1-0.1-0.2v-22.5c0-0.4,0.1-0.8,0.4-0.9c0.2-0.2,0.5-0.3,0.7-0.3h4.9c0.5,0,1,0,1.4,0.1
			c0.5,0,1,0.1,1.6,0.3c0.6,0.1,1.2,0.4,1.9,0.8c0.6,0.4,1.2,0.9,1.6,1.4c0.4,0.6,0.8,1.2,1,1.9S809.4,496.3,809.4,497.1z
			 M807,497.3c0-1-0.2-1.9-0.6-2.6s-0.9-1.3-1.5-1.6c-0.6-0.4-1.2-0.6-1.8-0.7s-1.2-0.1-1.8-0.1h-3.4v10.4h3.3
			c1.1,0,1.9-0.1,2.6-0.4c0.7-0.3,1.3-0.6,1.8-1.1s0.9-1,1.1-1.7C806.9,498.8,807,498.1,807,497.3z"/>
		<path class="st2" d="M830.4,513.5c0.1,0.2,0.1,0.3,0.1,0.5s0,0.2-0.1,0.3s-0.2,0.1-0.4,0.1s-0.4,0-0.6,0s-0.5,0-0.6,0
			c-0.2,0-0.3,0-0.4-0.1c-0.1,0-0.2-0.1-0.2-0.1c0-0.1-0.1-0.1-0.1-0.2l-2.3-6.4h-10.5l-2.2,6.4c0,0.1-0.1,0.2-0.1,0.2
			c0,0.1-0.1,0.1-0.2,0.2c-0.1,0-0.2,0.1-0.4,0.1s-0.3,0-0.6,0s-0.5,0-0.6,0c-0.2,0-0.3-0.1-0.4-0.1c-0.1-0.1-0.1-0.1-0.1-0.3
			c0-0.1,0-0.3,0.1-0.4l8.4-22.9c0-0.1,0.1-0.2,0.2-0.3c0.1-0.1,0.2-0.1,0.3-0.2c0.1,0,0.3-0.1,0.4-0.1s0.4,0,0.6,0
			c0.2,0,0.4,0,0.6,0s0.3,0,0.4,0.1c0.1,0,0.2,0.1,0.3,0.2s0.1,0.2,0.2,0.3L830.4,513.5z M820.5,492.7L820.5,492.7l-4.5,12.9h9.2
			L820.5,492.7z"/>
		<path class="st2" d="M853.5,513.2c0,0.2,0,0.4-0.1,0.6c-0.1,0.1-0.2,0.3-0.3,0.4c-0.1,0.1-0.2,0.2-0.4,0.2s-0.3,0.1-0.4,0.1h-0.5
			c-0.2,0-0.5,0-0.7-0.1c-0.2-0.1-0.4-0.2-0.6-0.3c-0.2-0.2-0.4-0.4-0.6-0.6c-0.2-0.3-0.4-0.6-0.6-1l-8.5-15
			c-0.4-0.7-0.8-1.5-1.3-2.3c-0.4-0.8-0.8-1.5-1.2-2.3l0,0c0,0.9,0,1.8,0,2.8s0,1.9,0,2.8v15.6c0,0.1,0,0.1-0.1,0.2
			c-0.1,0.1-0.1,0.1-0.2,0.1s-0.2,0.1-0.3,0.1s-0.3,0-0.5,0s-0.4,0-0.5,0s-0.3-0.1-0.4-0.1s-0.1-0.1-0.2-0.1s-0.1-0.1-0.1-0.2v-22.5
			c0-0.4,0.1-0.8,0.4-0.9c0.2-0.2,0.5-0.3,0.7-0.3h0.9c0.3,0,0.5,0,0.7,0.1c0.2,0,0.4,0.1,0.5,0.3c0.2,0.1,0.3,0.3,0.5,0.5
			s0.3,0.5,0.5,0.8l6.5,11.5c0.4,0.7,0.8,1.4,1.2,2.1s0.7,1.3,1.1,1.9c0.3,0.6,0.7,1.3,1,1.9s0.7,1.2,1,1.9l0,0c0-1,0-2.1,0-3.2
			s0-2.2,0-3.2v-14c0-0.1,0-0.1,0.1-0.2c0-0.1,0.1-0.1,0.2-0.2c0.1,0,0.2-0.1,0.3-0.1s0.3,0,0.5,0s0.4,0,0.5,0s0.3,0,0.4,0.1
			c0.1,0,0.2,0.1,0.2,0.2s0.1,0.1,0.1,0.2v22.2H853.5z"/>
		<path class="st2" d="M868.6,504.8v9.1c0,0.1,0,0.1-0.1,0.2c-0.1,0.1-0.1,0.1-0.2,0.1c-0.1,0-0.2,0.1-0.4,0.1s-0.3,0-0.5,0
			s-0.4,0-0.5,0s-0.3-0.1-0.4-0.1s-0.2-0.1-0.2-0.1s-0.1-0.1-0.1-0.2v-9.1l-6.9-13.8c-0.1-0.2-0.1-0.3-0.1-0.4s0-0.2,0.1-0.3
			c0.1-0.1,0.2-0.1,0.3-0.1c0.2,0,0.4,0,0.6,0c0.3,0,0.5,0,0.7,0s0.3,0,0.4,0.1s0.2,0.1,0.2,0.1c0,0.1,0.1,0.1,0.1,0.2l3.7,7.5
			c0.3,0.7,0.7,1.4,1,2.2c0.3,0.8,0.7,1.5,1,2.3l0,0c0.3-0.7,0.6-1.5,1-2.2c0.3-0.7,0.7-1.5,1-2.2l3.7-7.5c0-0.1,0.1-0.2,0.1-0.2
			c0-0.1,0.1-0.1,0.2-0.1c0.1,0,0.2-0.1,0.3-0.1s0.3,0,0.5,0c0.3,0,0.5,0,0.7,0s0.3,0.1,0.4,0.1c0.1,0.1,0.1,0.2,0.1,0.3
			c0,0.1-0.1,0.3-0.1,0.4L868.6,504.8z"/>
	</g>
</g>
</svg>
